<svg width="1338" height="887" viewBox="0 0 1338 887" fill="none" xmlns="http://www.w3.org/2000/svg">
<path opacity="0.2" fill-rule="evenodd" clip-rule="evenodd" d="M910.684 161.755C823.499 63.9802 640.889 27.5923 453.23 81.5356C220.479 148.442 68.0998 328.969 112.881 484.756C149.622 612.57 307.66 684.02 491.768 668.611C580.045 739.249 728.674 762.576 880.219 719.014C1092.8 657.906 1230.62 488.318 1188.05 340.228C1158.19 236.344 1047.49 170.634 910.684 161.755Z" fill="url(#paint0_linear)"/>
<g opacity="0.3">
<path fill-rule="evenodd" clip-rule="evenodd" d="M591.272 694.821C603.701 697.124 625.936 664.22 624.781 634.579C623.625 604.938 596.159 610.643 605.614 556.444C615.069 502.245 626.677 476.689 572.634 429.188C518.592 381.686 524.855 333.478 481.442 338.698C438.03 343.919 448.904 406.632 479.717 449.027C510.53 491.423 508.079 505.519 471.839 520.982C435.6 536.446 503.281 585.2 511.898 599.541C520.515 613.882 516.235 652.708 532.485 670.22C548.735 687.732 578.842 692.517 591.272 694.821Z" fill="url(#paint1_linear)"/>
<path d="M573.271 620.604C566.657 609.597 543.269 576.972 515.592 565.175" stroke="url(#paint2_linear)" stroke-width="6" stroke-linecap="round"/>
<path d="M558.329 542.166C551.715 531.159 577.974 504.863 580.552 474.887" stroke="url(#paint3_linear)" stroke-width="6" stroke-linecap="round"/>
<path d="M604.023 757.328C601.209 752.645 596.589 726.688 589.599 697.598C567.709 606.503 549.938 488.812 510.667 423.454" stroke="url(#paint4_linear)" stroke-width="6" stroke-linecap="round"/>
</g>
<g opacity="0.3">
<path d="M790.79 687.236C790.084 646.816 821.688 521.141 866.099 451.902" stroke="url(#paint5_linear)" stroke-width="6" stroke-linecap="round"/>
<path fill-rule="evenodd" clip-rule="evenodd" d="M845.314 471.302C845.314 471.302 846.88 451.146 836.416 433.731C825.952 416.316 812.97 404.901 807.421 408.236C801.871 411.571 805.854 428.392 816.319 445.807C826.783 463.222 845.314 471.302 845.314 471.302Z" fill="url(#paint6_linear)"/>
<path fill-rule="evenodd" clip-rule="evenodd" d="M857.116 478.057C857.116 478.057 874.177 488.902 894.466 487.839C914.756 486.776 930.928 480.672 930.59 474.206C930.251 467.741 913.528 463.361 893.239 464.424C872.95 465.488 857.116 478.057 857.116 478.057Z" fill="url(#paint7_linear)"/>
<path fill-rule="evenodd" clip-rule="evenodd" d="M836.17 529.866C836.17 529.866 852.641 541.59 872.958 541.59C893.275 541.59 909.745 536.341 909.745 529.866C909.745 523.392 893.275 518.143 872.958 518.143C852.641 518.143 836.17 529.866 836.17 529.866Z" fill="url(#paint8_linear)"/>
<path fill-rule="evenodd" clip-rule="evenodd" d="M819.287 581.916C819.287 581.916 835.757 593.639 856.074 593.639C876.391 593.639 892.862 588.39 892.862 581.916C892.862 575.441 876.391 570.192 856.074 570.192C835.757 570.192 819.287 581.916 819.287 581.916Z" fill="url(#paint9_linear)"/>
<path fill-rule="evenodd" clip-rule="evenodd" d="M869.829 444.129C869.829 444.129 888.499 436.374 899.265 419.144C910.031 401.914 914.308 385.166 908.817 381.735C903.326 378.303 890.147 389.49 879.381 406.719C868.615 423.949 869.829 444.129 869.829 444.129Z" fill="url(#paint10_linear)"/>
<path fill-rule="evenodd" clip-rule="evenodd" d="M822.887 524.057C822.887 524.057 820.579 503.973 806.984 488.874C793.389 473.776 778.468 465.048 773.656 469.381C768.845 473.713 775.965 489.465 789.559 504.563C803.154 519.662 822.887 524.057 822.887 524.057Z" fill="url(#paint11_linear)"/>
<path fill-rule="evenodd" clip-rule="evenodd" d="M804.771 578.302C804.771 578.302 800.376 558.569 785.277 544.975C770.179 531.38 754.427 524.26 750.095 529.071C745.762 533.883 754.49 548.804 769.588 562.399C784.687 575.994 804.771 578.302 804.771 578.302Z" fill="url(#paint12_linear)"/>
</g>
<path opacity="0.472712" d="M475.5 217.5L577.002 139.829" stroke="url(#paint13_linear)" stroke-width="8" stroke-linecap="round" stroke-linejoin="round"/>
<path opacity="0.472712" d="M476.5 256.5L556.56 195.237" stroke="url(#paint14_linear)" stroke-width="8" stroke-linecap="round" stroke-linejoin="round"/>
<path opacity="0.472712" d="M826.5 306.5L928.002 228.829" stroke="url(#paint15_linear)" stroke-width="8" stroke-linecap="round" stroke-linejoin="round"/>
<path opacity="0.472712" d="M827.5 345.5L907.56 284.237" stroke="url(#paint16_linear)" stroke-width="8" stroke-linecap="round" stroke-linejoin="round"/>
<path fill-rule="evenodd" clip-rule="evenodd" d="M1204.8 424.713L981.298 383C916.437 478.04 885.745 558.192 889.22 623.454C930.2 640.439 1009.09 667.318 1125.89 704.091L1219.88 451.344C1223.73 440.991 1218.45 429.477 1208.1 425.628C1207.03 425.229 1205.92 424.923 1204.8 424.713Z" fill="url(#paint17_linear)"/>
<path fill-rule="evenodd" clip-rule="evenodd" d="M981.373 437.447C983.412 444.483 982.49 449.561 978.605 452.682C972.777 457.362 966.925 465.323 961.156 465.979C955.386 466.634 949.14 469.798 948.128 477.891C947.64 481.801 927.619 502.014 920.467 529.825C918.656 536.866 920.859 547.701 927.076 562.329L943.616 553.224L967.173 515.066C993.336 505.977 1008.09 500.347 1011.42 498.175C1016.42 494.918 1032.62 480.98 1029.5 475.753C1026.38 470.527 1036.54 437.322 1042.58 430.868C1048.61 424.413 1053.56 408.685 1053.68 402.878C1053.8 397.071 1055.89 379.685 1040.82 380.24C1030.78 380.61 1010.96 399.679 981.373 437.447Z" fill="url(#paint18_linear)"/>
<mask id="mask0" mask-type="alpha" maskUnits="userSpaceOnUse" x="919" y="380" width="135" height="183">
<path fill-rule="evenodd" clip-rule="evenodd" d="M981.373 437.447C983.412 444.483 982.49 449.561 978.605 452.682C972.777 457.362 966.925 465.323 961.156 465.979C955.386 466.634 949.14 469.798 948.128 477.891C947.64 481.801 927.619 502.014 920.467 529.825C918.656 536.866 920.859 547.701 927.076 562.329L943.616 553.224L967.173 515.066C993.336 505.977 1008.09 500.347 1011.42 498.175C1016.42 494.918 1032.62 480.98 1029.5 475.753C1026.38 470.527 1036.54 437.322 1042.58 430.868C1048.61 424.413 1053.56 408.685 1053.68 402.878C1053.8 397.071 1055.89 379.685 1040.82 380.24C1030.78 380.61 1010.96 399.679 981.373 437.447Z" fill="white"/>
</mask>
<g mask="url(#mask0)">
<path fill-rule="evenodd" clip-rule="evenodd" d="M1037.73 467.317C1037.73 467.317 1009.15 416.596 995.801 403.867C982.451 391.138 1059.5 378.307 1059.5 378.307L1037.73 476.892V467.317Z" fill="url(#paint19_linear)" style="mix-blend-mode:multiply"/>
</g>
<path fill-rule="evenodd" clip-rule="evenodd" d="M965.756 318.143C958.86 322.787 964.743 341.478 957.278 352.147C953.196 357.981 944.61 361.225 940.646 363.547C929.431 370.115 940.955 374.803 943.273 378.712C945.591 382.621 943.743 391.454 942.008 398.414C940.272 405.375 934.115 421.061 940.717 424.566C947.318 428.07 987.852 443.373 999.573 438.699C1011.29 434.025 1015.49 410.612 1018.37 409.089C1021.26 407.565 1023.29 409.173 1025.96 409.838C1032.9 411.569 1039.17 407.678 1042.51 402.14C1046.29 395.869 1051.66 398.731 1048.75 390.161C1044.27 376.941 1018.3 324.868 1007.98 321.125C997.654 317.381 976.423 310.959 965.756 318.143Z" fill="url(#paint20_radial)"/>
<path fill-rule="evenodd" clip-rule="evenodd" d="M999.425 332.45C973.029 325.869 960.755 331.764 951.197 311.25C945.552 299.133 956.543 261.964 975.054 261.123C979.609 281.899 1001.62 283.686 1014.37 285.412C1082.83 294.681 1089.99 357.279 1069.5 394.152C1062.9 406.023 1056.79 414.553 1051.35 420.947C1047.89 425.007 1043.37 429.898 1041.85 432.219C1041.34 432.994 1036.92 442.771 1036.16 442.58C1033.85 442.005 1034.78 441.889 1035.91 431.769C1037.04 421.65 1037.67 418.927 1039.73 410.692C1040.33 408.26 1051.81 389.578 1043 382.814C1037.12 378.304 1029.18 381.058 1019.17 391.076L1013.1 388.788C1017.11 379.864 1019.65 373.276 1020.71 369.025C1022.3 362.647 1025.82 339.031 999.425 332.45Z" fill="url(#paint21_linear)"/>
<path fill-rule="evenodd" clip-rule="evenodd" d="M999.425 332.45C973.029 325.869 960.755 331.764 951.197 311.25C945.552 299.133 956.543 261.964 975.054 261.123C979.609 281.899 1001.62 283.686 1014.37 285.412C1082.83 294.681 1089.99 357.279 1069.5 394.152C1062.9 406.023 1056.79 414.553 1051.35 420.947C1047.89 425.007 1043.37 429.898 1041.85 432.219C1041.34 432.994 1036.92 442.771 1036.16 442.58C1033.85 442.005 1034.78 441.889 1035.91 431.769C1037.04 421.65 1037.67 418.927 1039.73 410.692C1040.33 408.26 1051.81 389.578 1043 382.814C1037.12 378.304 1029.18 381.058 1019.17 391.076L1013.1 388.788C1017.11 379.864 1019.65 373.276 1020.71 369.025C1022.3 362.647 1025.82 339.031 999.425 332.45Z" fill="url(#paint22_linear)"/>
<path fill-rule="evenodd" clip-rule="evenodd" d="M1013.11 389.093C1011.09 393.583 1003.49 403.934 996.629 407.673C989.767 411.411 975.314 411.64 972.349 407.377C969.384 403.115 955.917 383.807 943.779 380.781C943.17 383.225 941.507 387.382 938.79 393.252C948.185 397.157 953.641 400.831 955.159 404.273C957.436 409.436 958.659 405.977 956.385 408.271C954.111 410.565 942.235 408.802 941.334 399.848C937.908 406.978 934.228 426.222 935.525 430.619C936.822 435.016 944.29 437.033 951.659 437.506C959.029 437.979 985.285 441.986 991.972 440.619C998.66 439.253 1007.16 440.04 1012.75 423.838C1018.35 407.637 1017.1 397.14 1024.4 383.341C1031.7 369.542 1015.12 384.603 1013.11 389.093Z" fill="url(#paint23_linear)"/>
<g filter="url(#filter0_i)">
<path fill-rule="evenodd" clip-rule="evenodd" d="M1034.02 454.622C1061.76 460.94 1080.4 471.471 1089.94 486.214C1104.24 508.329 1111.41 567.073 1111.41 586.127C1111.41 605.181 1113.69 651.924 1111.41 664.676C1109.13 677.429 1098.66 686.902 1076.98 686.902C1062.53 686.902 980.613 660.021 831.24 606.259C850.885 596.545 861.019 589.834 861.644 586.127C862.582 580.567 908.167 479.169 922.584 468.84C937.001 458.511 966.928 453.622 978.926 453.622C977.172 458.492 973.269 462.422 978.786 468.84C984.303 475.259 995.129 476.38 1005.85 471.925C1013 468.955 1022.39 463.187 1034.02 454.622Z" fill="#3D82F0"/>
<path fill-rule="evenodd" clip-rule="evenodd" d="M1034.02 454.622C1061.76 460.94 1080.4 471.471 1089.94 486.214C1104.24 508.329 1111.41 567.073 1111.41 586.127C1111.41 605.181 1113.69 651.924 1111.41 664.676C1109.13 677.429 1098.66 686.902 1076.98 686.902C1062.53 686.902 980.613 660.021 831.24 606.259C850.885 596.545 861.019 589.834 861.644 586.127C862.582 580.567 908.167 479.169 922.584 468.84C937.001 458.511 966.928 453.622 978.926 453.622C977.172 458.492 973.269 462.422 978.786 468.84C984.303 475.259 995.129 476.38 1005.85 471.925C1013 468.955 1022.39 463.187 1034.02 454.622Z" fill="url(#paint24_linear)"/>
</g>
<mask id="mask1" mask-type="alpha" maskUnits="userSpaceOnUse" x="831" y="453" width="282" height="234">
<path fill-rule="evenodd" clip-rule="evenodd" d="M1034.02 454.622C1061.76 460.94 1080.4 471.471 1089.94 486.214C1104.24 508.329 1111.41 567.073 1111.41 586.127C1111.41 605.181 1113.69 651.924 1111.41 664.676C1109.13 677.429 1098.66 686.902 1076.98 686.902C1062.53 686.902 980.613 660.021 831.24 606.259C850.885 596.545 861.019 589.834 861.644 586.127C862.582 580.567 908.167 479.169 922.584 468.84C937.001 458.511 966.928 453.622 978.926 453.622C977.172 458.492 973.269 462.422 978.786 468.84C984.303 475.259 995.129 476.38 1005.85 471.925C1013 468.955 1022.39 463.187 1034.02 454.622Z" fill="white"/>
<path fill-rule="evenodd" clip-rule="evenodd" d="M1034.02 454.622C1061.76 460.94 1080.4 471.471 1089.94 486.214C1104.24 508.329 1111.41 567.073 1111.41 586.127C1111.41 605.181 1113.69 651.924 1111.41 664.676C1109.13 677.429 1098.66 686.902 1076.98 686.902C1062.53 686.902 980.613 660.021 831.24 606.259C850.885 596.545 861.019 589.834 861.644 586.127C862.582 580.567 908.167 479.169 922.584 468.84C937.001 458.511 966.928 453.622 978.926 453.622C977.172 458.492 973.269 462.422 978.786 468.84C984.303 475.259 995.129 476.38 1005.85 471.925C1013 468.955 1022.39 463.187 1034.02 454.622Z" stroke="white"/>
</mask>
<g mask="url(#mask1)">
<g opacity="0.585435">
<path fill-rule="evenodd" clip-rule="evenodd" d="M964.314 457.525C941.341 481.04 986.66 493.57 1005.16 487.305C1023.67 481.04 1044.44 457.525 1044.44 457.525C1044.44 457.525 992.11 418.585 978.212 438.055C964.314 457.525 987.287 434.009 964.314 457.525Z" fill="url(#paint25_linear)" style="mix-blend-mode:multiply"/>
</g>
<g opacity="0.54654">
<path fill-rule="evenodd" clip-rule="evenodd" d="M931.574 670.281C947.933 670.281 1054.29 652.668 1054.29 638.372C1054.29 624.075 1046.09 523.354 1046.09 523.354" fill="url(#paint26_linear)" style="mix-blend-mode:multiply"/>
</g>
<g opacity="0.54654">
<path fill-rule="evenodd" clip-rule="evenodd" d="M782.57 608.276C789.979 608.276 824.235 651.675 855.531 637.068C893.338 619.422 915.353 554.085 915.353 546.264C915.353 540.28 925.279 519.06 921.499 495.94C919.259 482.233 900.969 452.455 900.969 452.455" fill="url(#paint27_linear)" style="mix-blend-mode:multiply"/>
</g>
</g>
<path fill-rule="evenodd" clip-rule="evenodd" d="M658.083 135.119C662.109 165.798 662.88 183.65 660.398 188.676C656.674 196.215 663.886 231.678 686.853 233.734C709.819 235.79 721.859 226.004 722.761 202.077C723.664 178.15 725.102 168.926 728.811 158.338C732.52 147.75 663.399 103.884 660.398 111.994C658.397 117.4 657.625 125.109 658.083 135.119Z" fill="url(#paint28_linear)"/>
<path fill-rule="evenodd" clip-rule="evenodd" d="M752.478 64.6377C752.478 71.4591 753.384 92.7539 752.699 98.1501C752.014 103.546 751.468 111.588 752.083 121.976C752.699 132.365 747.304 157.916 741.281 167.173C737.685 172.699 723.433 183.354 709.453 181.857C692.88 180.083 674.758 164.08 672.82 156.078C669.246 141.325 672.207 128.307 661.909 120.468C651.611 112.629 644.107 105.348 645.032 93.2455C645.958 81.1436 656.534 52.3344 661.909 51.1237C667.285 49.9132 752.478 57.8165 752.478 64.6377Z" fill="url(#paint29_radial)"/>
<path fill-rule="evenodd" clip-rule="evenodd" d="M664.007 55.9281C668.894 63.302 711.679 98.849 754.561 75.7708C797.444 52.6927 740.4 10.7969 714.533 6.01705C688.666 1.23733 666.391 3.89409 650.745 25.6044C635.099 47.3149 627.25 84.5237 657.859 135C659.206 126.99 659.88 121.652 659.88 118.986C647.7 107.842 644.654 97.4562 650.745 87.8302C659.88 73.391 662.902 101.701 664.007 106.249C667.643 106.249 669.932 105.615 670.873 104.347C668.367 97.2019 667.453 90.5941 668.131 84.5237C669.149 75.418 672.156 73.391 664.007 55.9281Z" fill="url(#paint30_linear)"/>
<path fill-rule="evenodd" clip-rule="evenodd" d="M582.366 588.222C582.366 577.097 569.479 504.23 596.041 482.337C622.602 460.445 655.457 492.382 776.461 497.22C778.453 546.159 778.453 580.612 776.461 600.58C774.469 620.547 701.377 648.854 582.366 588.222Z" fill="#3D82F0"/>
<path fill-rule="evenodd" clip-rule="evenodd" d="M561.856 493.856C564.709 506.495 574.149 519.995 577.33 522.911C580.51 525.827 592.08 529.441 594.268 528.739C596.456 528.037 602.213 523.225 602.473 517.593C602.734 511.961 597.211 508.788 597.173 500.467C597.135 492.145 583.296 480.075 583.296 472.713C583.296 465.351 559.003 481.218 561.856 493.856Z" fill="#113275"/>
<path fill-rule="evenodd" clip-rule="evenodd" d="M917.554 476.517C926.137 487.902 931.725 489.894 934.942 493.289C938.159 496.685 945.521 508.671 948.255 506.673C950.989 504.676 953.82 500.74 949.566 493.289C945.312 485.839 938.869 477.98 941.105 474.036C943.342 470.092 954.259 458.435 963.371 455.729C972.483 453.023 975.51 454.771 976.418 453.316C977.326 451.863 965.521 449.752 960.657 449.206C955.792 448.661 948.899 448.034 938.96 449.206C932.334 449.988 927.718 447.233 925.113 440.943C914.351 457.069 911.832 468.926 917.554 476.517Z" fill="#143B8C"/>
<g filter="url(#filter1_i)">
<path fill-rule="evenodd" clip-rule="evenodd" d="M587.414 476.831C581.327 473.402 560.955 481.587 560.955 498.142C550.136 461.317 520.113 411.474 520.113 357C533.876 309.512 569.782 234.645 577.801 222.895C583.147 215.061 609.635 204.096 657.264 190C667.917 201.644 680.543 207.466 695.14 207.466C717.036 207.466 718.186 194.038 724.036 193.337C729.886 192.636 763.024 207.466 779.369 223.243C795.714 239.02 813.214 301.073 856.208 349.241C899.202 397.409 914.623 431.016 935.955 449.115C928.13 456.123 917.528 460.205 917.528 476.831C909.807 471.17 866.728 441.541 830.215 407.053C793.703 372.565 777.511 343.883 772 340C765.663 335.535 779.987 473.68 779.369 498.142C778.75 522.605 694.641 524 668.339 524C642.036 524 601.358 514.896 590.917 505.919C589.196 504.439 593.707 310.21 590.917 318.359C583.84 339.036 567.404 349.241 567.404 362.858C567.404 394.502 587.451 479.059 587.414 476.831Z" fill="url(#paint31_linear)"/>
</g>
<mask id="mask2" mask-type="alpha" maskUnits="userSpaceOnUse" x="520" y="190" width="416" height="335">
<path fill-rule="evenodd" clip-rule="evenodd" d="M587.414 476.831C581.327 473.402 560.955 481.587 560.955 498.142C550.136 461.317 520.113 411.474 520.113 357C533.876 309.512 569.782 234.645 577.801 222.895C583.147 215.061 609.635 204.096 657.264 190C667.917 201.644 680.543 207.466 695.14 207.466C717.036 207.466 718.186 194.038 724.036 193.337C729.886 192.636 763.024 207.466 779.369 223.243C795.714 239.02 813.214 301.073 856.208 349.241C899.202 397.409 914.623 431.016 935.955 449.115C928.13 456.123 917.528 460.205 917.528 476.831C909.807 471.17 866.728 441.541 830.215 407.053C793.703 372.565 777.511 343.883 772 340C765.663 335.535 779.987 473.68 779.369 498.142C778.75 522.605 694.641 524 668.339 524C642.036 524 601.358 514.896 590.917 505.919C589.196 504.439 593.707 310.21 590.917 318.359C583.84 339.036 567.404 349.241 567.404 362.858C567.404 394.502 587.451 479.059 587.414 476.831Z" fill="white"/>
</mask>
<g mask="url(#mask2)">
<path fill-rule="evenodd" clip-rule="evenodd" d="M582.099 335.375L619.782 285.295C619.782 285.295 633.74 447.702 571.43 503.959C560.451 438.885 566.563 404.874 571.43 376.438C574.626 357.765 582.099 335.375 582.099 335.375Z" fill="url(#paint32_linear)" style="mix-blend-mode:multiply"/>
<g opacity="0.161551">
<path fill-rule="evenodd" clip-rule="evenodd" d="M594.662 515.27C608.729 474.058 671.944 338.319 698.999 318.964C726.054 299.609 728.092 274.628 727.073 241.471C726.054 208.314 662.863 142.254 629.827 167.241C596.791 192.227 508.348 238.328 498.677 315.632C489.005 392.935 530.194 511.508 548.801 499.786C567.408 488.065 580.595 556.483 594.662 515.27Z" fill="url(#paint33_linear)" style="mix-blend-mode:multiply"/>
</g>
</g>
<path fill-rule="evenodd" clip-rule="evenodd" d="M661.271 164.981C661.271 172.516 672.731 193.581 694.86 192.779C716.989 191.978 721.44 191.368 723.955 180.132C723.955 196.779 724.817 201.693 720.736 212.671C716.655 223.648 691.219 229.667 676.953 220.549C662.687 211.43 655.253 205.971 657.34 189.324C659.427 172.677 661.271 157.445 661.271 164.981Z" fill="url(#paint34_linear)"/>
<path fill-rule="evenodd" clip-rule="evenodd" d="M159.4 396.032L362.329 347C399.86 448.191 416.887 531.417 413.411 596.679C372.432 613.664 310.963 635.687 229.005 662.745L145.209 422.048C141.577 411.616 147.09 400.216 157.521 396.584C158.138 396.369 158.765 396.185 159.4 396.032Z" fill="url(#paint35_linear)"/>
<path fill-rule="evenodd" clip-rule="evenodd" d="M390.392 360.689C386.047 374.449 400.161 413.3 422.584 432.285C445.006 451.27 372.887 448.043 372.845 426.876C372.802 405.709 394.736 346.929 390.392 360.689Z" fill="#316EEA"/>
<path fill-rule="evenodd" clip-rule="evenodd" d="M400.206 403.807C417.163 410.8 429.388 418.268 436.881 426.211C448.121 438.125 502.78 530.793 509.224 536.279C515.669 541.765 560.022 545.921 566.7 548.11C563.284 553.052 556.64 568.314 560.055 581.738C549.514 587.044 526.361 582.306 479 577C443.769 547.53 425.476 501.05 417.943 478.861C410.41 456.672 404.498 431.654 400.206 403.807Z" fill="url(#paint36_linear)"/>
<path fill-rule="evenodd" clip-rule="evenodd" d="M423.474 419.699C437.164 443.116 458.281 490.135 464.278 510.433C470.709 532.203 445.71 589.529 446 603C446.242 614.233 434.683 610.311 331.998 620.645C328.824 600.839 328.824 576.075 331.998 546.352C336.758 501.767 317.36 441.783 322.738 431.711C328.116 421.639 341.199 400.221 346.943 400.221C352.686 400.221 409.784 396.283 423.474 419.699Z" fill="url(#paint37_radial)"/>
<path fill-rule="evenodd" clip-rule="evenodd" d="M0 666.163L619.902 536.754C630.683 534.503 641.877 535.264 652.255 538.952L1043.24 677.904C1139.58 712.143 1128.51 851.814 1027.98 870.454L950.641 884.794C944.628 885.909 938.526 886.47 932.411 886.47H99.9999C44.7715 886.47 0 841.698 0 786.47V666.163Z" fill="url(#paint38_linear)"/>
<g style="mix-blend-mode:multiply" opacity="0.196931">
<path fill-rule="evenodd" clip-rule="evenodd" d="M444.604 687.588L689.403 648.021L875.66 729.627L606.014 801.157" fill="url(#paint39_linear)"/>
</g>
<path fill-rule="evenodd" clip-rule="evenodd" d="M384.977 366.388C382.418 378.343 384.626 386.992 384.626 400.598C384.626 418.784 347.491 411.385 346.224 397.598C344.956 383.812 346.453 365.329 341.224 352.805C335.994 340.282 387.535 354.434 384.977 366.388Z" fill="url(#paint40_linear)"/>
<path fill-rule="evenodd" clip-rule="evenodd" d="M384.977 366.388C382.418 378.343 384.626 386.992 384.626 400.598C384.626 418.784 347.491 411.385 346.224 397.598C344.956 383.812 346.453 365.329 341.224 352.805C335.994 340.282 387.535 354.434 384.977 366.388Z" fill="url(#paint41_linear)" fill-opacity="0.67"/>
<mask id="mask3" mask-type="alpha" maskUnits="userSpaceOnUse" x="340" y="347" width="46" height="65">
<path fill-rule="evenodd" clip-rule="evenodd" d="M384.977 366.388C382.418 378.343 384.626 386.992 384.626 400.598C384.626 418.784 347.491 411.385 346.224 397.598C344.956 383.812 346.453 365.329 341.224 352.805C335.994 340.282 387.535 354.434 384.977 366.388Z" fill="white"/>
<path fill-rule="evenodd" clip-rule="evenodd" d="M384.977 366.388C382.418 378.343 384.626 386.992 384.626 400.598C384.626 418.784 347.491 411.385 346.224 397.598C344.956 383.812 346.453 365.329 341.224 352.805C335.994 340.282 387.535 354.434 384.977 366.388Z" stroke="white"/>
</mask>
<g mask="url(#mask3)">
<g opacity="0.717132">
<path fill-rule="evenodd" clip-rule="evenodd" d="M331.813 419.588C331.813 419.588 387.907 372.588 400.853 372.588C413.798 372.588 331.813 356.83 331.813 356.83V419.588Z" fill="url(#paint42_linear)" style="mix-blend-mode:multiply"/>
</g>
</g>
<path fill-rule="evenodd" clip-rule="evenodd" d="M396.379 270.191C399.68 280.614 399.311 292.172 405.715 302.125C412.119 312.079 420.557 320.772 422.798 325.194C425.039 329.617 413.809 333.546 413.809 337.501C413.809 341.455 421.293 368.973 417.288 371.603C415.006 377.748 372.978 386.267 362.365 380.164C353.01 380.164 338.591 371.956 329.743 351.787C320.894 331.618 320.486 282.641 329.743 270.191C338.999 257.74 393.079 259.768 396.379 270.191Z" fill="url(#paint43_linear)"/>
<path fill-rule="evenodd" clip-rule="evenodd" d="M461.955 668.581L475.976 554.832L667.178 551L650.46 662.052L461.955 668.581Z" fill="url(#paint44_linear)"/>
<mask id="mask4" mask-type="alpha" maskUnits="userSpaceOnUse" x="461" y="550" width="207" height="119">
<path fill-rule="evenodd" clip-rule="evenodd" d="M461.955 668.581L475.976 554.832L667.178 551L650.46 662.052L461.955 668.581Z" fill="white"/>
</mask>
<g mask="url(#mask4)">
<g style="mix-blend-mode:multiply" opacity="0.458036">
<path fill-rule="evenodd" clip-rule="evenodd" d="M660.584 637.931L635.694 548.011H675.791L660.584 637.931Z" fill="url(#paint45_linear)"/>
</g>
<g style="mix-blend-mode:multiply" opacity="0.528404">
<path fill-rule="evenodd" clip-rule="evenodd" d="M483.205 616.11C483.205 623.285 500.481 633.699 520.793 642.815C532.571 648.1 530.947 660.37 536.072 660.37C550.037 660.37 450.88 700.675 450.88 700.675C450.88 700.675 445.502 646.173 450.88 631.949C456.74 616.449 483.205 612.169 483.205 616.11Z" fill="url(#paint46_linear)"/>
</g>
</g>
<path fill-rule="evenodd" clip-rule="evenodd" d="M446.386 622.435C452.192 622.435 459.222 619.364 469.489 617.018C479.757 614.671 486.232 610.942 489.384 614.411C490.616 615.767 488.561 619.066 487.059 619.966C485.557 620.866 484.761 622.19 477.591 624.841C470.937 627.301 467.084 628.452 468.287 630.744C469.489 633.037 480.39 635.031 483.882 635.956C488.337 637.136 495.038 639.437 501.429 640.51C508.57 641.709 516.461 641.842 517.368 642.366C519.086 643.358 521.598 647.09 517.368 648.281C516.369 648.563 509.141 648.708 500.351 648.281C490.964 647.826 482.356 646.027 483.882 648.281C484.243 648.816 492.9 650.582 502.408 650.582C508.043 650.582 519.446 651.283 520.167 651.283C522.775 651.283 524.083 654.848 521.718 656.603C521.166 657.012 510.163 658.258 501.429 658.579C491.375 658.949 482.478 658.038 482.372 658.579C482.296 658.973 492.885 660.305 502.408 659.852C510.113 659.485 514.349 658.882 515.79 659.852C517.23 660.822 516.865 663.412 515.79 664.578C515.343 665.063 508.38 667.277 501.429 667.738C491.666 668.385 481.059 667.254 480.965 667.738C480.716 669.02 498.756 669.832 501.429 669.832C505.234 669.832 504.754 674.753 500.351 675.795C494.828 677.102 483.401 676.998 478.2 676.998C472.999 676.998 465.184 675.795 457.365 672.891C449.545 669.988 439.103 666.1 432.485 664.578C425.332 662.934 430.468 640.32 435.421 628.454C440.373 616.589 440.581 622.435 446.386 622.435Z" fill="url(#paint47_linear)"/>
<path fill-rule="evenodd" clip-rule="evenodd" d="M273.565 491.967C258.774 529.789 270.467 558.495 276.96 591.264C283.453 624.033 286.407 631.125 296.754 637.789C307.102 644.454 332.475 653.738 430 665C430 657.21 429.751 637.859 442.498 621.609C424.477 621.609 360.416 603.941 338.39 598.403C318.602 583.238 338.39 558.923 338.39 513.304C338.39 467.685 288.356 454.146 273.565 491.967Z" fill="url(#paint48_linear)"/>
<path fill-rule="evenodd" clip-rule="evenodd" d="M380.503 309.156L330.583 318.561V322.297L382.28 318.362L380.503 309.156Z" fill="#143B8C"/>
<path fill-rule="evenodd" clip-rule="evenodd" d="M393.792 328.701C388.029 329.306 382.577 322.445 381.625 313.388C380.673 304.332 384.58 296.487 390.343 295.881C396.106 295.276 401.558 302.137 402.51 311.193C403.462 320.25 399.556 328.095 393.792 328.701Z" fill="black" fill-opacity="0.01" stroke="#143B8C" stroke-width="4"/>
<path fill-rule="evenodd" clip-rule="evenodd" d="M421.628 312.566C416.414 313.114 411.481 306.907 410.62 298.713C409.758 290.518 413.293 283.421 418.507 282.873C423.722 282.325 428.654 288.532 429.515 296.727C430.377 304.921 426.842 312.018 421.628 312.566Z" fill="black" fill-opacity="0.01" stroke="#143B8C" stroke-width="4"/>
<path fill-rule="evenodd" clip-rule="evenodd" d="M401.462 308.032C401.462 305.747 407.911 301.267 411.146 303.522L401.462 308.032Z" fill="black" fill-opacity="0.01"/>
<path d="M401.462 308.032C401.462 305.747 407.911 301.267 411.146 303.522" stroke="#143B8C" stroke-width="4"/>
<path fill-rule="evenodd" clip-rule="evenodd" d="M333.209 274.937C347.03 285.623 379.186 288.757 401.074 278.433C422.962 268.108 428.303 225.838 401.074 212.833C390.717 207.887 370.147 211.089 373 226C349.177 216.788 323.271 224.855 313 231C296.996 240.574 284.522 251.006 277.963 272.937C271.404 294.868 282.112 316.678 276.842 327.846C271.572 339.014 256.046 348.711 264.347 383.031C272.647 417.352 252.702 411.861 248.206 432.795C243.709 453.73 258.031 463.718 248.206 477.667C238.38 491.616 219.544 550.505 254.824 582.045C290.103 613.585 355.844 636.564 370.783 568.669C385.722 500.774 315.645 485.952 336.21 452C356.774 418.048 343.151 386.571 347.456 376.864C352.752 364.922 347.058 346.698 337 322C327.685 299.125 341.095 293.018 333.209 274.937Z" fill="url(#paint49_linear)"/>
<path fill-rule="evenodd" clip-rule="evenodd" d="M333.209 274.937C347.03 285.623 379.186 288.757 401.074 278.433C422.962 268.108 428.303 225.838 401.074 212.833C390.717 207.887 370.147 211.089 373 226C349.177 216.788 323.271 224.855 313 231C296.996 240.574 284.522 251.006 277.963 272.937C271.404 294.868 282.112 316.678 276.842 327.846C271.572 339.014 256.046 348.711 264.347 383.031C272.647 417.352 252.702 411.861 248.206 432.795C243.709 453.73 258.031 463.718 248.206 477.667C238.38 491.616 219.544 550.505 254.824 582.045C290.103 613.585 355.844 636.564 370.783 568.669C385.722 500.774 315.645 485.952 336.21 452C356.774 418.048 343.151 386.571 347.456 376.864C352.752 364.922 347.058 346.698 337 322C327.685 299.125 341.095 293.018 333.209 274.937Z" fill="url(#paint50_linear)"/>
<path fill-rule="evenodd" clip-rule="evenodd" d="M455.94 753.861L589 731C662.444 776.897 698.437 799.992 696.977 800.287C694.901 800.706 547.974 826.398 538.049 829.061C538.977 826.69 511.601 801.617 455.94 753.861Z" fill="url(#paint51_linear)"/>
<path fill-rule="evenodd" clip-rule="evenodd" d="M534.94 718.356L673.992 709L750.436 775.79L577.197 787.742L534.94 718.356Z" fill="url(#paint52_linear)"/>
<g filter="url(#filter2_i)">
<path fill-rule="evenodd" clip-rule="evenodd" d="M876.261 728.352L1002.55 678.067C1005.11 677.046 1006.36 674.138 1005.34 671.572C1004.81 670.24 1003.73 669.199 1002.38 668.715L841.583 611.083L682.955 650.288L876.261 728.352Z" fill="url(#paint53_linear)"/>
</g>
<g filter="url(#filter3_i)">
<path fill-rule="evenodd" clip-rule="evenodd" d="M654.839 486.982L833.021 544.642C838.264 546.338 842.154 550.772 843.154 556.191L875.036 728.981L681.955 650.656L647.135 493.992C646.416 490.757 648.455 487.552 651.69 486.833C652.734 486.601 653.822 486.652 654.839 486.982Z" fill="url(#paint54_linear)"/>
<path fill-rule="evenodd" clip-rule="evenodd" d="M654.839 486.982L833.021 544.642C838.264 546.338 842.154 550.772 843.154 556.191L875.036 728.981L681.955 650.656L647.135 493.992C646.416 490.757 648.455 487.552 651.69 486.833C652.734 486.601 653.822 486.652 654.839 486.982Z" fill="url(#paint55_linear)" fill-opacity="0.23"/>
</g>
<path fill-rule="evenodd" clip-rule="evenodd" d="M744.222 614.33C753.405 618.809 763.088 618.8 767.083 610.61C771.078 602.419 763.871 593.149 754.688 588.67C745.505 584.191 736.822 584.2 732.828 592.39C728.833 600.581 735.039 609.851 744.222 614.33Z" fill="#D6E3FA"/>
<path fill-rule="evenodd" clip-rule="evenodd" d="M683.602 108.112C683.582 104.247 686.697 101.097 690.562 101.075L709.024 100.968C712.953 100.946 716.132 104.161 716.064 108.089L715.911 116.956C715.844 120.809 712.676 123.884 708.823 123.835L690.559 123.603C686.742 123.554 683.668 120.457 683.648 116.641L683.602 108.112Z" stroke="#E5EFFD" stroke-width="5"/>
<path fill-rule="evenodd" clip-rule="evenodd" d="M736.512 108.1C736.469 104.203 739.617 101.021 743.514 101.023L759.126 101.029C763.017 101.03 766.161 104.205 766.123 108.096L766.038 116.938C766.001 120.834 762.789 123.95 758.894 123.869L743.461 123.551C739.682 123.473 736.647 120.409 736.606 116.629L736.512 108.1Z" stroke="#E5EFFD" stroke-width="5"/>
<path fill-rule="evenodd" clip-rule="evenodd" d="M715.955 111H735.955H715.955Z" fill="black" fill-opacity="0.01"/>
<path d="M715.955 111H735.955" stroke="#E5EFFD" stroke-width="4"/>
<path fill-rule="evenodd" clip-rule="evenodd" d="M660.754 93.9812L685.123 105.818V117.409L663.066 102.019L660.754 93.9812Z" fill="#E5EFFD"/>
<path fill-rule="evenodd" clip-rule="evenodd" d="M414.232 344.855C415.214 344.349 414.905 346.588 415.332 347.901C415.759 349.215 416.05 349.422 416.191 350.278C412.118 352.376 405.03 352.79 400.283 349.982C399.333 349.42 398.502 348.959 399.29 348.184C400.078 347.41 401.059 347.895 402.118 348.208C405.815 349.302 411.694 346.162 414.232 344.855Z" fill="#1A418F"/>
<path opacity="0.7" fill-rule="evenodd" clip-rule="evenodd" d="M271 795C304.137 795 331 800.82 331 808C331 815.18 304.137 821 271 821C237.863 821 211 815.18 211 808C211 800.82 237.863 795 271 795Z" fill="url(#paint56_linear)"/>
<path fill-rule="evenodd" clip-rule="evenodd" d="M350.957 732.37C355.471 740.28 358 749.142 358 758.5C358 791.913 325.765 819 286 819C246.235 819 214 791.913 214 758.5C214 748.597 216.831 739.25 221.851 730.999C253.747 736.048 317.233 735.723 350.957 732.37Z" fill="url(#paint57_linear)"/>
<mask id="mask5" mask-type="alpha" maskUnits="userSpaceOnUse" x="214" y="730" width="144" height="89">
<path fill-rule="evenodd" clip-rule="evenodd" d="M350.957 732.37C355.471 740.28 358 749.142 358 758.5C358 791.913 325.765 819 286 819C246.235 819 214 791.913 214 758.5C214 748.597 216.831 739.25 221.851 730.999C253.747 736.048 317.233 735.723 350.957 732.37Z" fill="white"/>
</mask>
<g mask="url(#mask5)">
</g>
<path fill-rule="evenodd" clip-rule="evenodd" d="M286.5 719C322.675 719 352 725.94 352 734.5C352 743.06 322.675 750 286.5 750C250.325 750 221 743.06 221 734.5C221 725.94 250.325 719 286.5 719Z" fill="url(#paint58_linear)"/>
<mask id="mask6" mask-type="alpha" maskUnits="userSpaceOnUse" x="221" y="719" width="131" height="31">
<path fill-rule="evenodd" clip-rule="evenodd" d="M286.5 719C322.675 719 352 725.94 352 734.5C352 743.06 322.675 750 286.5 750C250.325 750 221 743.06 221 734.5C221 725.94 250.325 719 286.5 719Z" fill="white"/>
</mask>
<g mask="url(#mask6)">
</g>
<g filter="url(#filter4_i)">
<path fill-rule="evenodd" clip-rule="evenodd" d="M281 723C277.423 698.246 267.583 662.501 238 624C220.574 601.32 220.517 546.091 218 540C231.674 544.702 256.238 556.823 281 591C306.957 626.827 290.49 699.891 281 723Z" fill="url(#paint59_linear)"/>
</g>
<mask id="mask7" mask-type="alpha" maskUnits="userSpaceOnUse" x="218" y="540" width="77" height="183">
<path fill-rule="evenodd" clip-rule="evenodd" d="M281 723C277.423 698.246 267.583 662.501 238 624C220.574 601.32 220.517 546.091 218 540C231.674 544.702 256.238 556.823 281 591C306.957 626.827 290.49 699.891 281 723Z" fill="white"/>
</mask>
<g mask="url(#mask7)">
<g style="mix-blend-mode:multiply" opacity="0.5">
<path d="M278.922 710.642L254.906 596.993C273.215 627.941 280.013 661.487 278.922 710.642Z" fill="black" fill-opacity="0.01"/>
<path d="M278.922 710.642L254.906 596.993C273.215 627.941 280.013 661.487 278.922 710.642Z" stroke="#489C71" stroke-width="3"/>
</g>
</g>
<g filter="url(#filter5_i)">
<path fill-rule="evenodd" clip-rule="evenodd" d="M281.11 748.408C270.059 730.733 250.534 706.779 215.018 687.356C194.096 675.915 175.487 633.815 171.519 630.016C183.534 629.008 206.353 629.999 236.737 647.744C268.587 666.345 280.584 727.597 281.11 748.408Z" fill="url(#paint60_linear)"/>
</g>
<mask id="mask8" mask-type="alpha" maskUnits="userSpaceOnUse" x="171" y="629" width="111" height="120">
<path fill-rule="evenodd" clip-rule="evenodd" d="M281.11 748.408C270.059 730.733 250.534 706.779 215.018 687.356C194.096 675.915 175.487 633.815 171.519 630.016C183.534 629.008 206.353 629.999 236.737 647.744C268.587 666.345 280.584 727.597 281.11 748.408Z" fill="white"/>
</mask>
<g mask="url(#mask8)">
<g style="mix-blend-mode:multiply" opacity="0.5">
<path d="M274.299 737.766L219.943 662.188C243.156 679.189 259.141 701.766 274.299 737.766Z" fill="black" fill-opacity="0.01"/>
<path d="M274.299 737.766L219.943 662.188C243.156 679.189 259.141 701.766 274.299 737.766Z" stroke="#489C71" stroke-width="3"/>
</g>
</g>
<g filter="url(#filter6_i)">
<path fill-rule="evenodd" clip-rule="evenodd" d="M289.047 750.83C297.76 731.805 314.1 705.436 346.956 681.516C366.311 667.425 379.383 623.106 382.843 618.811C370.744 619.357 348.144 623.286 320.182 644.874C290.871 667.503 286.871 730.04 289.047 750.83Z" fill="url(#paint61_linear)"/>
</g>
<mask id="mask9" mask-type="alpha" maskUnits="userSpaceOnUse" x="288" y="618" width="95" height="133">
<path fill-rule="evenodd" clip-rule="evenodd" d="M289.047 750.83C297.76 731.805 314.1 705.436 346.956 681.516C366.311 667.425 379.383 623.106 382.843 618.811C370.744 619.357 348.144 623.286 320.182 644.874C290.871 667.503 286.871 730.04 289.047 750.83Z" fill="white"/>
</mask>
<g mask="url(#mask9)">
<g style="mix-blend-mode:multiply" opacity="0.5">
<path d="M335.473 656.778L291.089 739.136C301.524 701.281 314.527 676.716 335.473 656.778Z" fill="black" fill-opacity="0.01"/>
<path d="M335.473 656.778L291.089 739.136C301.524 701.281 314.527 676.716 335.473 656.778Z" stroke="#489C71" stroke-width="3"/>
</g>
</g>
<defs>
<filter id="filter0_i" x="819.24" y="453.622" width="293.186" height="234.28" filterUnits="userSpaceOnUse" color-interpolation-filters="sRGB">
<feFlood flood-opacity="0" result="BackgroundImageFix"/>
<feBlend mode="normal" in="SourceGraphic" in2="BackgroundImageFix" result="shape"/>
<feColorMatrix in="SourceAlpha" type="matrix" values="0 0 0 0 0 0 0 0 0 0 0 0 0 0 0 0 0 0 127 0" result="hardAlpha"/>
<feOffset dx="-12" dy="1"/>
<feGaussianBlur stdDeviation="13.5"/>
<feComposite in2="hardAlpha" operator="arithmetic" k2="-1" k3="1"/>
<feColorMatrix type="matrix" values="0 0 0 0 0.0901961 0 0 0 0 0.254902 0 0 0 0 0.572549 0 0 0 0.204201 0"/>
<feBlend mode="normal" in2="shape" result="effect1_innerShadow"/>
</filter>
<filter id="filter1_i" x="520.113" y="190" width="423.843" height="337" filterUnits="userSpaceOnUse" color-interpolation-filters="sRGB">
<feFlood flood-opacity="0" result="BackgroundImageFix"/>
<feBlend mode="normal" in="SourceGraphic" in2="BackgroundImageFix" result="shape"/>
<feColorMatrix in="SourceAlpha" type="matrix" values="0 0 0 0 0 0 0 0 0 0 0 0 0 0 0 0 0 0 127 0" result="hardAlpha"/>
<feOffset dx="8" dy="3"/>
<feGaussianBlur stdDeviation="11.5"/>
<feComposite in2="hardAlpha" operator="arithmetic" k2="-1" k3="1"/>
<feColorMatrix type="matrix" values="0 0 0 0 0.729412 0 0 0 0 0.8 0 0 0 0 0.933333 0 0 0 1 0"/>
<feBlend mode="normal" in2="shape" result="effect1_innerShadow"/>
</filter>
<filter id="filter2_i" x="665.955" y="604.083" width="339.742" height="124.269" filterUnits="userSpaceOnUse" color-interpolation-filters="sRGB">
<feFlood flood-opacity="0" result="BackgroundImageFix"/>
<feBlend mode="normal" in="SourceGraphic" in2="BackgroundImageFix" result="shape"/>
<feColorMatrix in="SourceAlpha" type="matrix" values="0 0 0 0 0 0 0 0 0 0 0 0 0 0 0 0 0 0 127 0" result="hardAlpha"/>
<feOffset dx="-17" dy="-7"/>
<feGaussianBlur stdDeviation="12"/>
<feComposite in2="hardAlpha" operator="arithmetic" k2="-1" k3="1"/>
<feColorMatrix type="matrix" values="0 0 0 0 0.239216 0 0 0 0 0.509804 0 0 0 0 0.941176 0 0 0 0.775419 0"/>
<feBlend mode="normal" in2="shape" result="effect1_innerShadow"/>
</filter>
<filter id="filter3_i" x="640.991" y="486.69" width="234.045" height="244.291" filterUnits="userSpaceOnUse" color-interpolation-filters="sRGB">
<feFlood flood-opacity="0" result="BackgroundImageFix"/>
<feBlend mode="normal" in="SourceGraphic" in2="BackgroundImageFix" result="shape"/>
<feColorMatrix in="SourceAlpha" type="matrix" values="0 0 0 0 0 0 0 0 0 0 0 0 0 0 0 0 0 0 127 0" result="hardAlpha"/>
<feOffset dx="-6" dy="2"/>
<feGaussianBlur stdDeviation="6"/>
<feComposite in2="hardAlpha" operator="arithmetic" k2="-1" k3="1"/>
<feColorMatrix type="matrix" values="0 0 0 0 1 0 0 0 0 1 0 0 0 0 1 0 0 0 0.5 0"/>
<feBlend mode="normal" in2="shape" result="effect1_innerShadow"/>
</filter>
<filter id="filter4_i" x="218" y="530" width="76.9467" height="193" filterUnits="userSpaceOnUse" color-interpolation-filters="sRGB">
<feFlood flood-opacity="0" result="BackgroundImageFix"/>
<feBlend mode="normal" in="SourceGraphic" in2="BackgroundImageFix" result="shape"/>
<feColorMatrix in="SourceAlpha" type="matrix" values="0 0 0 0 0 0 0 0 0 0 0 0 0 0 0 0 0 0 127 0" result="hardAlpha"/>
<feOffset dy="-10"/>
<feGaussianBlur stdDeviation="11"/>
<feComposite in2="hardAlpha" operator="arithmetic" k2="-1" k3="1"/>
<feColorMatrix type="matrix" values="0 0 0 0 0.221483 0 0 0 0 0.77854 0 0 0 0 0.610041 0 0 0 1 0"/>
<feBlend mode="normal" in2="shape" result="effect1_innerShadow"/>
</filter>
<filter id="filter5_i" x="171.519" y="619.746" width="109.592" height="128.662" filterUnits="userSpaceOnUse" color-interpolation-filters="sRGB">
<feFlood flood-opacity="0" result="BackgroundImageFix"/>
<feBlend mode="normal" in="SourceGraphic" in2="BackgroundImageFix" result="shape"/>
<feColorMatrix in="SourceAlpha" type="matrix" values="0 0 0 0 0 0 0 0 0 0 0 0 0 0 0 0 0 0 127 0" result="hardAlpha"/>
<feOffset dy="-10"/>
<feGaussianBlur stdDeviation="11"/>
<feComposite in2="hardAlpha" operator="arithmetic" k2="-1" k3="1"/>
<feColorMatrix type="matrix" values="0 0 0 0 0.221483 0 0 0 0 0.77854 0 0 0 0 0.610041 0 0 0 1 0"/>
<feBlend mode="normal" in2="shape" result="effect1_innerShadow"/>
</filter>
<filter id="filter6_i" x="288.548" y="608.811" width="94.2945" height="142.019" filterUnits="userSpaceOnUse" color-interpolation-filters="sRGB">
<feFlood flood-opacity="0" result="BackgroundImageFix"/>
<feBlend mode="normal" in="SourceGraphic" in2="BackgroundImageFix" result="shape"/>
<feColorMatrix in="SourceAlpha" type="matrix" values="0 0 0 0 0 0 0 0 0 0 0 0 0 0 0 0 0 0 127 0" result="hardAlpha"/>
<feOffset dy="-10"/>
<feGaussianBlur stdDeviation="11"/>
<feComposite in2="hardAlpha" operator="arithmetic" k2="-1" k3="1"/>
<feColorMatrix type="matrix" values="0 0 0 0 0.221483 0 0 0 0 0.77854 0 0 0 0 0.610041 0 0 0 1 0"/>
<feBlend mode="normal" in2="shape" result="effect1_innerShadow"/>
</filter>
<linearGradient id="paint0_linear" x1="940.75" y1="397.5" x2="940.75" y2="13" gradientUnits="userSpaceOnUse">
<stop stop-color="#ECF2FC" stop-opacity="0.642323"/>
<stop offset="1" stop-color="#D4E1F8"/>
</linearGradient>
<linearGradient id="paint1_linear" x1="558.339" y1="395.606" x2="444.988" y2="543.823" gradientUnits="userSpaceOnUse">
<stop stop-color="#CFDDF3"/>
<stop offset="1" stop-color="#A1B8E3"/>
</linearGradient>
<linearGradient id="paint2_linear" x1="533.5" y1="554.415" x2="573.271" y2="620.604" gradientUnits="userSpaceOnUse">
<stop stop-color="#CFDDF3"/>
<stop offset="1" stop-color="#A1B8E3"/>
</linearGradient>
<linearGradient id="paint3_linear" x1="534.522" y1="502.545" x2="558.329" y2="542.166" gradientUnits="userSpaceOnUse">
<stop stop-color="#CFDDF3"/>
<stop offset="1" stop-color="#A1B8E3"/>
</linearGradient>
<linearGradient id="paint4_linear" x1="510.667" y1="423.454" x2="682.828" y2="709.978" gradientUnits="userSpaceOnUse">
<stop stop-color="#CFDDF3"/>
<stop offset="1" stop-color="#A1B8E3"/>
</linearGradient>
<linearGradient id="paint5_linear" x1="786.706" y1="453.288" x2="790.79" y2="687.236" gradientUnits="userSpaceOnUse">
<stop stop-color="#CFDDF3"/>
<stop offset="1" stop-color="#A1B8E3"/>
</linearGradient>
<linearGradient id="paint6_linear" x1="784.906" y1="319.563" x2="740.163" y2="363.007" gradientUnits="userSpaceOnUse">
<stop stop-color="#CFDDF3"/>
<stop offset="1" stop-color="#A1B8E3"/>
</linearGradient>
<linearGradient id="paint7_linear" x1="1019.45" y1="495.957" x2="1002.1" y2="436.056" gradientUnits="userSpaceOnUse">
<stop stop-color="#CFDDF3"/>
<stop offset="1" stop-color="#A1B8E3"/>
</linearGradient>
<linearGradient id="paint8_linear" x1="997.348" y1="556.237" x2="983.154" y2="495.51" gradientUnits="userSpaceOnUse">
<stop stop-color="#CFDDF3"/>
<stop offset="1" stop-color="#A1B8E3"/>
</linearGradient>
<linearGradient id="paint9_linear" x1="980.465" y1="608.287" x2="966.271" y2="547.56" gradientUnits="userSpaceOnUse">
<stop stop-color="#CFDDF3"/>
<stop offset="1" stop-color="#A1B8E3"/>
</linearGradient>
<linearGradient id="paint10_linear" x1="977.604" y1="321.417" x2="918.583" y2="301.274" gradientUnits="userSpaceOnUse">
<stop stop-color="#CFDDF3"/>
<stop offset="1" stop-color="#A1B8E3"/>
</linearGradient>
<linearGradient id="paint11_linear" x1="734.636" y1="386.633" x2="699.005" y2="437.816" gradientUnits="userSpaceOnUse">
<stop stop-color="#CFDDF3"/>
<stop offset="1" stop-color="#A1B8E3"/>
</linearGradient>
<linearGradient id="paint12_linear" x1="702.638" y1="450.856" x2="672.552" y2="505.483" gradientUnits="userSpaceOnUse">
<stop stop-color="#CFDDF3"/>
<stop offset="1" stop-color="#A1B8E3"/>
</linearGradient>
<linearGradient id="paint13_linear" x1="560.467" y1="-13.3252" x2="375.4" y2="223.217" gradientUnits="userSpaceOnUse">
<stop stop-color="#D2E0F9" stop-opacity="0.01"/>
<stop offset="1" stop-color="#B1C6E7" stop-opacity="0.464589"/>
</linearGradient>
<linearGradient id="paint14_linear" x1="543.517" y1="74.4369" x2="397.546" y2="261.01" gradientUnits="userSpaceOnUse">
<stop stop-color="#D2E0F9" stop-opacity="0.01"/>
<stop offset="1" stop-color="#B1C6E7" stop-opacity="0.464589"/>
</linearGradient>
<linearGradient id="paint15_linear" x1="911.467" y1="75.6748" x2="726.4" y2="312.217" gradientUnits="userSpaceOnUse">
<stop stop-color="#D2E0F9" stop-opacity="0.01"/>
<stop offset="1" stop-color="#B1C6E7" stop-opacity="0.464589"/>
</linearGradient>
<linearGradient id="paint16_linear" x1="894.517" y1="163.437" x2="748.546" y2="350.01" gradientUnits="userSpaceOnUse">
<stop stop-color="#D2E0F9" stop-opacity="0.01"/>
<stop offset="1" stop-color="#B1C6E7" stop-opacity="0.464589"/>
</linearGradient>
<linearGradient id="paint17_linear" x1="1035.17" y1="577.466" x2="1162.96" y2="539.385" gradientUnits="userSpaceOnUse">
<stop stop-color="#7FA0D4"/>
<stop offset="1" stop-color="#D6E3FA"/>
</linearGradient>
<linearGradient id="paint18_linear" x1="1007.53" y1="371.664" x2="952.042" y2="415.264" gradientUnits="userSpaceOnUse">
<stop stop-color="#5D6FAA"/>
<stop offset="1" stop-color="#90AADB"/>
</linearGradient>
<linearGradient id="paint19_linear" x1="993.829" y1="378.307" x2="993.829" y2="476.892" gradientUnits="userSpaceOnUse">
<stop stop-color="#CFDDF3"/>
<stop offset="1" stop-color="#A1B8E3" stop-opacity="0.01"/>
</linearGradient>
<radialGradient id="paint20_radial" cx="0" cy="0" r="1" gradientUnits="userSpaceOnUse" gradientTransform="translate(953.491 356.408) rotate(23.4052) scale(51.8391 69.6597)">
<stop stop-color="#E1EDFF"/>
<stop offset="1" stop-color="#A1B8E3"/>
</radialGradient>
<linearGradient id="paint21_linear" x1="915.474" y1="258.62" x2="941.487" y2="348.412" gradientUnits="userSpaceOnUse">
<stop stop-color="#2D6DC0"/>
<stop offset="1" stop-color="#143B8C"/>
</linearGradient>
<linearGradient id="paint22_linear" x1="991.388" y1="338.167" x2="1010.88" y2="429.672" gradientUnits="userSpaceOnUse">
<stop stop-color="#174293" stop-opacity="0.01"/>
<stop offset="1" stop-color="#051E4B"/>
</linearGradient>
<linearGradient id="paint23_linear" x1="888.194" y1="409.821" x2="927.553" y2="475.984" gradientUnits="userSpaceOnUse">
<stop stop-color="#2D6DC0"/>
<stop offset="1" stop-color="#143B8C"/>
</linearGradient>
<linearGradient id="paint24_linear" x1="908.151" y1="582.843" x2="893.618" y2="636.187" gradientUnits="userSpaceOnUse">
<stop stop-color="#2E7DE7" stop-opacity="0.01"/>
<stop offset="1" stop-color="#00357E" stop-opacity="0.5"/>
</linearGradient>
<linearGradient id="paint25_linear" x1="1044.44" y1="488.909" x2="1044.44" y2="431.565" gradientUnits="userSpaceOnUse">
<stop stop-color="#70B8F9" stop-opacity="0.275872"/>
<stop offset="1" stop-color="#3D82F0"/>
</linearGradient>
<linearGradient id="paint26_linear" x1="982.442" y1="636.112" x2="1042.35" y2="666.96" gradientUnits="userSpaceOnUse">
<stop stop-color="#3D82F0" stop-opacity="0.01"/>
<stop offset="1" stop-color="#3D82F0"/>
</linearGradient>
<linearGradient id="paint27_linear" x1="840.514" y1="596.441" x2="911.809" y2="629.187" gradientUnits="userSpaceOnUse">
<stop stop-color="#3D82F0" stop-opacity="0.01"/>
<stop offset="1" stop-color="#3D82F0"/>
</linearGradient>
<linearGradient id="paint28_linear" x1="632.225" y1="175.287" x2="710.655" y2="210.548" gradientUnits="userSpaceOnUse">
<stop stop-color="#00224E"/>
<stop offset="1" stop-color="#113275"/>
</linearGradient>
<radialGradient id="paint29_radial" cx="0" cy="0" r="1" gradientUnits="userSpaceOnUse" gradientTransform="translate(755 154.012) rotate(-74.4773) scale(82.2642 66.7928)">
<stop stop-color="#2D6DC0"/>
<stop offset="1" stop-color="#143B8C"/>
</radialGradient>
<linearGradient id="paint30_linear" x1="743.958" y1="-12.969" x2="680.009" y2="76.898" gradientUnits="userSpaceOnUse">
<stop stop-color="#CFDDF3"/>
<stop offset="1" stop-color="#A1B8E3"/>
</linearGradient>
<linearGradient id="paint31_linear" x1="857.651" y1="165.914" x2="682.73" y2="250.473" gradientUnits="userSpaceOnUse">
<stop stop-color="#EDF3FD"/>
<stop offset="1" stop-color="#D6E3FA"/>
</linearGradient>
<linearGradient id="paint32_linear" x1="594.104" y1="629.336" x2="701.912" y2="600.914" gradientUnits="userSpaceOnUse">
<stop stop-color="#EAF0F7" stop-opacity="0.115546"/>
<stop offset="1" stop-color="#D1DDED"/>
</linearGradient>
<linearGradient id="paint33_linear" x1="729.094" y1="155.466" x2="560.168" y2="179.34" gradientUnits="userSpaceOnUse">
<stop stop-color="#EAF0F7" stop-opacity="0.115546"/>
<stop offset="1" stop-color="#D1DDED"/>
</linearGradient>
<linearGradient id="paint34_linear" x1="665.667" y1="203.258" x2="684.402" y2="203.258" gradientUnits="userSpaceOnUse">
<stop stop-color="#B1C6E7"/>
<stop offset="1" stop-color="#E5EFFD"/>
</linearGradient>
<linearGradient id="paint35_linear" x1="311.157" y1="448.071" x2="210.41" y2="427.666" gradientUnits="userSpaceOnUse">
<stop stop-color="#7FA0D4"/>
<stop offset="1" stop-color="#D6E3FA"/>
</linearGradient>
<linearGradient id="paint36_linear" x1="509.817" y1="635.75" x2="598.879" y2="585.615" gradientUnits="userSpaceOnUse">
<stop stop-color="#002D65"/>
<stop offset="0.87783" stop-color="#3A74C6"/>
<stop offset="1" stop-color="#3062AA"/>
</linearGradient>
<radialGradient id="paint37_radial" cx="0" cy="0" r="1" gradientUnits="userSpaceOnUse" gradientTransform="translate(472 508.5) rotate(-173.25) scale(113.078 163.343)">
<stop stop-color="#2D6DC0"/>
<stop offset="1" stop-color="#143B8C"/>
</radialGradient>
<linearGradient id="paint38_linear" x1="-94.518" y1="720.907" x2="-83.3366" y2="846.018" gradientUnits="userSpaceOnUse">
<stop stop-color="#EAEFFF"/>
<stop offset="1" stop-color="#F7F9FE"/>
</linearGradient>
<linearGradient id="paint39_linear" x1="530.204" y1="642.823" x2="526.47" y2="736.161" gradientUnits="userSpaceOnUse">
<stop stop-color="#0041B2"/>
<stop offset="1" stop-color="#2D64D7" stop-opacity="0.01"/>
</linearGradient>
<linearGradient id="paint40_linear" x1="334" y1="339" x2="334" y2="420" gradientUnits="userSpaceOnUse">
<stop stop-color="#4376C9"/>
<stop offset="1" stop-color="#D6E3FA"/>
</linearGradient>
<linearGradient id="paint41_linear" x1="344.873" y1="413.873" x2="378.867" y2="413.873" gradientUnits="userSpaceOnUse">
<stop stop-color="#133B8B"/>
<stop offset="1" stop-color="#A9BFE7" stop-opacity="0.01"/>
<stop offset="1" stop-color="#A9BFE7" stop-opacity="0.01"/>
</linearGradient>
<linearGradient id="paint42_linear" x1="331.813" y1="356.83" x2="331.813" y2="419.588" gradientUnits="userSpaceOnUse">
<stop stop-color="#699DF3"/>
<stop offset="1" stop-color="#8597B5" stop-opacity="0.01"/>
</linearGradient>
<linearGradient id="paint43_linear" x1="313.903" y1="366.962" x2="387.937" y2="375.355" gradientUnits="userSpaceOnUse">
<stop stop-color="#7798F6"/>
<stop offset="1" stop-color="#E5EFFD"/>
</linearGradient>
<linearGradient id="paint44_linear" x1="523.632" y1="708.997" x2="593.24" y2="595.416" gradientUnits="userSpaceOnUse">
<stop stop-color="#FF7F31"/>
<stop offset="1" stop-color="#FFD25F"/>
</linearGradient>
<linearGradient id="paint45_linear" x1="660.476" y1="540.375" x2="629.159" y2="544.606" gradientUnits="userSpaceOnUse">
<stop stop-color="#FF7F31"/>
<stop offset="1" stop-color="#FFC83A" stop-opacity="0.01"/>
</linearGradient>
<linearGradient id="paint46_linear" x1="507.949" y1="696.369" x2="551.581" y2="665.998" gradientUnits="userSpaceOnUse">
<stop stop-color="#FF7F31"/>
<stop offset="1" stop-color="#FFC83A" stop-opacity="0.01"/>
</linearGradient>
<linearGradient id="paint47_linear" x1="436.814" y1="611.422" x2="421.029" y2="657.248" gradientUnits="userSpaceOnUse">
<stop stop-color="#ECF2FB"/>
<stop offset="1" stop-color="#D5E1F5"/>
</linearGradient>
<linearGradient id="paint48_linear" x1="392.253" y1="555.418" x2="335.331" y2="598.817" gradientUnits="userSpaceOnUse">
<stop stop-color="#3D82F0"/>
<stop offset="1" stop-color="#143B8C"/>
</linearGradient>
<linearGradient id="paint49_linear" x1="472.028" y1="217.712" x2="235.216" y2="221.738" gradientUnits="userSpaceOnUse">
<stop stop-color="#70B8F9"/>
<stop offset="1" stop-color="#0457DC"/>
</linearGradient>
<linearGradient id="paint50_linear" x1="345.13" y1="392.214" x2="226.479" y2="427.796" gradientUnits="userSpaceOnUse">
<stop stop-color="#3D82F0" stop-opacity="0.01"/>
<stop offset="1" stop-color="#0049BD"/>
</linearGradient>
<linearGradient id="paint51_linear" x1="455.94" y1="731" x2="455.94" y2="829.061" gradientUnits="userSpaceOnUse">
<stop stop-color="#B2C7E8"/>
<stop offset="1" stop-color="#D6E3FA"/>
</linearGradient>
<linearGradient id="paint52_linear" x1="534.94" y1="709" x2="534.94" y2="787.742" gradientUnits="userSpaceOnUse">
<stop stop-color="#C6D6EE"/>
<stop offset="1" stop-color="#E5EFFD"/>
</linearGradient>
<linearGradient id="paint53_linear" x1="811.716" y1="651.207" x2="894.654" y2="651.207" gradientUnits="userSpaceOnUse">
<stop stop-color="#002B64"/>
<stop offset="1" stop-color="#0F3177"/>
</linearGradient>
<linearGradient id="paint54_linear" x1="786.35" y1="469.95" x2="626.559" y2="574.092" gradientUnits="userSpaceOnUse">
<stop stop-color="#DBE9FF"/>
<stop offset="0.440948" stop-color="#A7BDE4"/>
<stop offset="1" stop-color="#5876AF"/>
</linearGradient>
<linearGradient id="paint55_linear" x1="788.163" y1="660.222" x2="776.946" y2="686.569" gradientUnits="userSpaceOnUse">
<stop stop-color="#869FCE" stop-opacity="0.01"/>
<stop offset="1" stop-color="#4975C1"/>
</linearGradient>
<linearGradient id="paint56_linear" x1="333" y1="794" x2="210" y2="794" gradientUnits="userSpaceOnUse">
<stop stop-color="#D9E5F6" stop-opacity="0.712636"/>
<stop offset="1" stop-color="#B2C6EA"/>
</linearGradient>
<linearGradient id="paint57_linear" x1="335.464" y1="854.931" x2="355.597" y2="778.017" gradientUnits="userSpaceOnUse">
<stop stop-color="#ACC5E9"/>
<stop offset="0.627469" stop-color="#D3E3FB"/>
<stop offset="1" stop-color="#EAF2FF"/>
</linearGradient>
<linearGradient id="paint58_linear" x1="225.006" y1="711.841" x2="221.811" y2="763.064" gradientUnits="userSpaceOnUse">
<stop stop-color="#86A8D9"/>
<stop offset="1" stop-color="#BCD0F2"/>
</linearGradient>
<linearGradient id="paint59_linear" x1="204.946" y1="589.641" x2="312.423" y2="702.179" gradientUnits="userSpaceOnUse">
<stop stop-color="#B1FFBE"/>
<stop offset="0.444207" stop-color="#5CDB8E"/>
<stop offset="1" stop-color="#149654"/>
</linearGradient>
<linearGradient id="paint60_linear" x1="203.383" y1="623.826" x2="218.836" y2="743.249" gradientUnits="userSpaceOnUse">
<stop stop-color="#B1FFBE"/>
<stop offset="0.444207" stop-color="#5CDB8E"/>
<stop offset="1" stop-color="#149654"/>
</linearGradient>
<linearGradient id="paint61_linear" x1="271.886" y1="653.756" x2="342.664" y2="764.84" gradientUnits="userSpaceOnUse">
<stop stop-color="#B1FFBE"/>
<stop offset="0.444207" stop-color="#5CDB8E"/>
<stop offset="1" stop-color="#149654"/>
</linearGradient>
</defs>
</svg>
