<?xml version="1.0" encoding="utf-8"?>
<!-- Generator: Adobe Illustrator 19.0.0, SVG Export Plug-In . SVG Version: 6.00 Build 0)  -->
<svg version="1.1" id="ILLUSTRATION" xmlns="http://www.w3.org/2000/svg" xmlns:xlink="http://www.w3.org/1999/xlink" x="0px"
	 y="0px" viewBox="0 0 1521.4 828.8" style="enable-background:new 0 0 1521.4 828.8;" xml:space="preserve">
<style type="text/css">
	.st0{opacity:0.3;fill:#BEDCEC;}
	.st1{fill:#BEDCEC;}
	.st2{fill:#00AD63;}
	.st3{fill:#EDEEF2;}
	.st4{fill:#00B72B;}
	.st5{fill:url(#SVGID_1_);}
	.st6{fill:#FFFFFF;}
	.st7{fill:#00D268;}
	.st8{fill:#77B6D7;}
	.st9{fill:#67F3C6;}
	.st10{fill:#359C87;}
	.st11{fill:#CACACA;}
	.st12{fill:#A3A3A3;}
	.st13{fill:#707070;}
	.st14{fill:#4E4E4E;}
	.st15{fill:#D9DAEC;}
	.st16{fill:#53C88D;}
	.st17{fill:#99DDC9;}
	.st18{fill:#FFC996;}
	.st19{fill:#EE9972;}
	.st20{fill:#8D6CD1;}
	.st21{fill:#9776DB;}
	.st22{fill:#8F70D0;}
	.st23{fill:#FFA750;}
	.st24{fill:#FF8B50;}
	.st25{fill:#FFC150;}
	.st26{fill:#241542;}
	.st27{fill:#442BC7;}
	.st28{fill:#3B289F;}
	.st29{fill:#F7F7F7;}
	.st30{fill:#3C3D41;}
	.st31{fill:#494A50;}
	.st32{fill:#FF7F48;}
	.st33{fill:#0D187B;}
	.st34{fill:#D95734;}
	.st35{fill:#909090;}
	.st36{fill:#D8886F;}
	.st37{fill:#4F4640;}
	.st38{fill:#A7B7FD;}
	.st39{fill:#477994;}
	.st40{fill:#98CBE6;}
	.st41{fill:#594DC5;}
	.st42{fill:#332B7A;}
	.st43{fill:#FFA88C;}
	.st44{fill:#E19578;}
	.st45{fill:#755BE4;}
	.st46{fill:#63124D;}
	.st47{fill:#B2BE00;}
	.st48{fill:#9AA313;}
	.st49{fill:#E18A6D;}
	.st50{fill:#827E7E;}
	.st51{fill:#CCC2C2;}
	.st52{fill:#A1A3D2;}
	.st53{fill:#8E90BE;}
</style>
<path class="st0" d="M5.8,828.8C-20.1,742.4,40,653.1,197.1,645.5c280.1-13.6,745.5-160.4,946.7-477
	c128.8-202.8,283.5-182.7,378-142.1v802.4H5.8z"/>
<g>
	<path class="st1" d="M1037.9,740.3c28.2-45.5,61.2-108,69.8-160.5c14.7-95-69.2-37.7-102.9,64.4c0,0,31.8-133.8-13.5-230.3
		c-45.3-96.5-66.2,102.5-41,230.3c0,0-45.9-229.2-129.2-298.3c-80.2-67.2-34.3,153.3,54.5,309.7c5.5,8.7,8,13.9,8,13.9
		c-2.4-4.6-5.5-9.2-8-13.9C854.8,622.2,796,537,707.2,496.9c-111.5-50.5,1.8,136.5,145.2,217.9c0,0-69.8-32.4-129.8-15.1
		c-22,6.4-15.3,22.4,5.5,41.2C811.3,740.9,948.5,740.7,1037.9,740.3z"/>
	<path class="st2" d="M772,740.7c-10.1-16.3-22-38.8-25.1-57.6c-5.3-34.1,24.9-13.6,37,23.1c0,0-11.4-48.1,4.8-82.7
		c16.3-34.7,23.8,36.8,14.7,82.7c0,0,16.5-82.3,46.4-107.2c28.8-24.1,12.3,55.1-19.6,111.3c-2,3.1-2.9,5-2.9,5c0.9-1.7,2-3.3,2.9-5
		c7.5-12,28.6-42.6,60.5-57c40-18.2-0.7,49-52.1,78.3c0,0,25.1-11.6,46.6-5.4c7.9,2.3,5.5,8-2,14.8
		C853.4,740.9,804.1,740.9,772,740.7z"/>
	<path class="st3" d="M1381.5,740.8c-4.1-6.6-8.9-15.6-10.1-23.2c-2.1-13.7,10-5.5,14.9,9.3c0,0-4.6-19.4,1.9-33.3
		c6.6-14,9.6,14.8,5.9,33.3c0,0,6.6-33.1,18.7-43.1c11.6-9.7,5,22.2-7.9,44.8c-0.8,1.3-1.2,2-1.2,2c0.4-0.7,0.8-1.3,1.2-2
		c3-4.8,11.5-17.2,24.4-23c16.1-7.3-0.3,19.7-21,31.5c0,0,10.1-4.7,18.8-2.2c3.2,0.9,2.2,3.2-0.8,6
		C1414.2,740.9,1394.4,740.9,1381.5,740.8z"/>
	<path class="st4" d="M340.5,589.7c0,0,0,10.7,11.3,16.8c11.3,6,17.8-1.1,20.2,2.6c0,0,3.9-9.9-6.6-19.4
		C355,580.2,345,584.1,340.5,589.7z"/>
	<path class="st4" d="M330,641.4c0,0,5.5,37.5-43.1,27.9c0,0,1.7-1.9,5.5-11.5C296.2,648.1,312.7,634.6,330,641.4z"/>
	<path class="st4" d="M311.3,520.1c0,0,7.7-13.6,0-19.3C303.6,495.1,305.1,511.9,311.3,520.1z"/>
	<path class="st4" d="M302.1,530.5c0,0-12.5-12.2-15.2-3.5C284.2,535.6,302.1,530.5,302.1,530.5z"/>
	<path class="st4" d="M306.1,540.8c0,0-15,6.9-7.2,11.6C306.7,557,306.1,540.8,306.1,540.8z"/>
	<path class="st4" d="M321.2,527.9c0,0,13.9-1.8,12.6-7.8C332.4,514,321.4,521.8,321.2,527.9z"/>
	<circle class="st4" cx="309.6" cy="529.5" r="3.5"/>
	<path d="M330,594.9c1.8-10.8,4.6-21.5,2.9-33.1c0,0-1.5-7.8-3.7-12.2c-3.2-6.2-8.5-11.2-14.7-14.6c-0.5-0.3-1-0.5-1.7-0.5
		c-1.9,0.5-2.1,2.6,0.6,4.1c10,5.8,16.1,16.8,16.4,30c0.2,11.5-3.5,22.7-4.6,34.2c-0.1,2-0.2,4.9-0.2,4.9c0,11.6,5.6,22.1,12.7,31.5
		c-1.2-0.3-2.4-0.4-3.5-0.4c-9.5,0.2-17.1,8-22.4,14.8c-0.1,0.2-0.8,1.3-0.4,2.2c0.5,1.1,2.3,1.4,3.1,0.3c0.2-0.3,0.2-0.3,0.5-0.6
		c0.8-1.1,1.8-2.3,2.7-3.3c0.8-0.9,1.6-1.7,2.4-2.6c0.7-0.6,1.3-1.2,2-1.8c0.5-0.4,1-0.8,1.5-1.2c5.5-4.2,14.2-6.7,19.9-0.2l0.1,0
		c0.8,1,1.6,1.9,2.5,2.9c18.3,20.7,39.5,38.8,52.3,64c3.9,7.7,7.9,16.3,6.2,25c-0.8,4.1,1.7,3.5,2.6,2.8c0.6-0.4,0.9-1.6,0.9-1.6
		c0.2-1,0.2-1.2,0.3-1.7c0.8-7.6-1.9-15.4-4.9-22.2c-13.9-31.3-43.6-53.3-63.5-79.4c-6.9-9-12-19.7-11.2-31.7c0-0.9,0.1-1.8,0.2-2.7
		c0,0,0,0,0,0c3.3-5.4,9.1-9.3,15.6-9.6c8.4-0.4,16.1,4.1,22.5,8.9c0,0,0.7,0.5,1.4,0.3c1.6-0.3,2.1-2.3,0.1-3.8
		c-6.8-4.9-14.5-9-22.8-9.1c-0.2,0-0.2,0-0.4,0C339.7,588.7,334.2,591,330,594.9z"/>
	
		<linearGradient id="SVGID_1_" gradientUnits="userSpaceOnUse" x1="-398.5852" y1="828.8416" x2="-397.5852" y2="828.8416" gradientTransform="matrix(-79.1875 -218.03 -218.03 79.1875 149622.0625 -151778.1406)">
		<stop  offset="0" style="stop-color:#B2E3FC"/>
		<stop  offset="1" style="stop-color:#BBDCEE"/>
	</linearGradient>
	<path class="st5" d="M373.9,741.8c0,0-18.9-26.8-19-61.9c-0.2-35,54.7-23.7,43.7-51c-11-27.3-37.8-61.4-13.4-88.1
		c24.4-26.7,81-7.2,76.1,44.8c-4.5,48.6,15.7,63.2,47.5,81.9c31.8,18.6,53.4,39.8,37.2,74.3H373.9z"/>
	<path class="st6" d="M426,580.3c-4.8-13.2-10-26.3-15.4-39.2c0,0-0.5-2.3-2.5-2.1c-2.9,0.9-1,3.2-0.2,5.2
		c4.6,11.1,9.1,22.2,13.3,33.4c-3.8-3.1-7.7-6.3-11.5-9.5c0,0-0.5-0.5-1.3-0.4c-3.2,0.4-1.8,2.6-1,3.2c5.4,4.4,10.8,8.9,16.2,13.3
		c0.1,0,0.1,0.1,0.1,0.1c4.1,11.3,7.8,22.7,11.1,34.5c0.9,3.4,2.2,6.8,2,10.1c-0.1,2.2-4,0.1-7.5-0.8c-1.5-0.4-3.1-1.7-5.5-0.2
		c-1,0.6-1.6,2.2-1.6,2.2c-0.7,3.8,0.9,6.8,2.1,10.1c5.5,14.6,12.6,28.5,19.7,42.5c-7.3-2.6-14.3-6.3-21.1-10.5c0,0-0.5-0.3-1-0.3
		c-1,0.1-1.1,0.4-1.4,0.7c-1.4,1.8,2.3,3.8,5.4,5.6c6.5,3.7,13.3,7.1,20.5,9.1c4,8,8,16.1,11.7,24.3c4.3,10,8.5,20.1,11.3,30.6
		c0,0,1.1,1.9,2.5,1.2c1.3-0.6,0.8-2.8,0.7-3.1c-0.1-0.5-0.1-0.5-0.3-1c-5.1-18-13.1-35-21.5-51.8c0,0,0.1,0,0.1-0.1
		c0.4-0.5,0.5-1.2,0.2-1.8c0.3-1.3,0.5-3,0.6-4.4c0.7-6.5,1.5-13.1,3.3-19.4c0,0,0-2.4-1.9-2.3c-1,0.1-1.6,1-1.9,2.1
		c-1.7,6.6-2.6,13.5-3.2,20.3c-6.8-13.4-13.6-26.6-19.2-40.3c-0.1-0.4-0.1-0.4-0.3-0.7c-1.2-3.1-2.9-6.3-2.7-9.7
		c0-0.6,0.6-0.1,1.2,0.1c4.8,1,10.7,4.5,12.9-0.1c0,0,0.5-1.4,0.6-2.5c0-1.2-0.1-1.4-0.2-2.1c-1.4-11.3-5.7-22.1-9.7-33.5
		c-1-3-2.1-6-3.1-9.1c3.7-1.9,7-7,8.5-10.3c0.8-1.6,1.3-4.1,1.3-4.1c0.3-2.2-0.7-2.1-1.9-2.1c-2.5,0.2-2.2,4.6-4.6,7.9
		C429.4,577.3,427.8,578.9,426,580.3z"/>
	<path class="st7" d="M518.6,741.8c0,0-7.3-24.1-5.6-42.7c1.6-18.6,25.3,7.2,25.3,7.2s-9.8-19.6-12.5-38.8
		c-2.7-19.3,19.4-13.4,33.2,19.5c0,0,0.8-30.6,9.6-37.9c8.7-7.3,35.1,59.5,31.1,92.7H518.6z"/>
</g>
<g>
	<path class="st8" d="M1445.1,744.6c0,0,15.6-22.2,15.7-51.2c0.2-29-45.3-19.6-36.2-42.2c9.1-22.6,31.3-50.8,11.1-72.9
		s-67-5.9-63,37.1c3.7,40.2-13,52.3-39.3,67.7c-26.3,15.4-44.2,32.9-30.8,61.5H1445.1z"/>
	<path class="st6" d="M1402,611c4-10.9,8.3-21.7,12.7-32.4c0,0,0.4-1.9,2.1-1.7c2.4,0.8,0.8,2.7,0.2,4.3c-3.8,9.2-7.5,18.4-11,27.6
		c3.1-2.6,6.4-5.2,9.5-7.8c0,0,0.4-0.4,1.1-0.3c2.6,0.3,1.5,2.1,0.8,2.7c-4.5,3.7-8.9,7.4-13.4,11c-0.1,0-0.1,0.1-0.1,0.1
		c-3.4,9.3-6.5,18.8-9.2,28.5c-0.7,2.8-1.8,5.6-1.7,8.4c0.1,1.8,3.3,0,6.2-0.7c1.2-0.3,2.6-1.4,4.5-0.2c0.8,0.5,1.3,1.9,1.3,1.9
		c0.6,3.1-0.7,5.7-1.7,8.3c-4.5,12.1-10.4,23.6-16.3,35.2c6-2.1,11.8-5.2,17.5-8.6c0,0,0.4-0.2,0.8-0.2c0.8,0.1,0.9,0.3,1.2,0.6
		c1.2,1.5-1.9,3.1-4.5,4.6c-5.4,3-11,5.8-17,7.5c-3.3,6.6-6.6,13.3-9.7,20.1c-3.6,8.2-7,16.6-9.3,25.3c0,0-0.9,1.5-2.1,1
		c-1.1-0.5-0.7-2.3-0.6-2.6c0.1-0.4,0.1-0.4,0.2-0.8c4.2-14.9,10.8-28.9,17.8-42.8c0,0-0.1,0-0.1-0.1c-0.3-0.4-0.4-1-0.2-1.5
		c-0.2-1.1-0.4-2.4-0.5-3.6c-0.6-5.4-1.2-10.8-2.7-16c0,0,0-1.9,1.6-1.9c0.8,0.1,1.3,0.8,1.6,1.7c1.4,5.5,2.2,11.1,2.6,16.8
		c5.6-11,11.3-22,15.9-33.3c0.1-0.3,0.1-0.3,0.2-0.6c1-2.6,2.4-5.3,2.2-8c0-0.5-0.5-0.1-1,0.1c-4,0.9-8.9,3.8-10.7-0.1
		c0,0-0.4-1.2-0.5-2.1c0-1,0.1-1.2,0.2-1.7c1.2-9.4,4.7-18.3,8-27.7c0.8-2.5,1.7-5,2.6-7.5c-3.1-1.6-5.8-5.8-7-8.5
		c-0.7-1.3-1.1-3.4-1.1-3.4c-0.2-1.8,0.6-1.8,1.6-1.7c2.1,0.2,1.8,3.8,3.8,6.5C1399.2,608.6,1400.5,609.9,1402,611z"/>
</g>
<g>
	<path class="st9" d="M1325.4,744.6c0,0,6-19.9,4.6-35.3c-1.3-15.4-20.9,6-20.9,6s8.1-16.2,10.3-32.1c2.2-15.9-16-11.1-27.5,16.1
		c0,0-0.7-25.3-7.9-31.4c-7.2-6.1-29,49.2-25.7,76.6H1325.4z"/>
</g>
<g>
	<path class="st10" d="M975.2,679.6c0,0,18.9-23.3,21.2-45.7s-19.5-16.6-26.5,12.9c0,0-4.3-27.2-11.2-46.2c-6.9-19-28-18.7-26.7,7.8
		c1.3,26.5,14.7,46.1,14.7,46.1s-14.1-21.7-28-27.9c-14.1-6.2-8.2,14.8,0.8,27.5c9.1,12.6,30,25.9,30,25.9L975.2,679.6z"/>
	<path class="st6" d="M942.9,587.4c2.4,11.6,4.8,23.3,7.4,34.9c4.2-4.4,8.1-9.2,10.8-14.6c0.2,0.7,0.4,1.4,0.6,2
		c-0.2,0.5-0.5,0.9-0.7,1.3c-2.8,4.7-6.3,9.1-10.2,13c3.2,14.3,6.8,28.4,10.8,42.3c4.4-1.2,7.9-5,10.8-8.5
		c5.9-7.2,10.3-15.5,14.3-24c2.1-4.2,4.1-8.5,5.8-12.9c0.5,0.2,0.9,0.5,1.3,0.9c-3.2,7.8-6.9,15.5-11,22.9c4,0,7.9-0.2,11.7-0.8
		c-0.2,0.5-0.3,1.1-0.5,1.6c-3.8,0.6-7.8,0.8-11.7,0.7c-0.1,0-0.2,0-0.4-0.1c-0.3,0.5-0.6,1-0.9,1.5c-4.1,6.9-8.6,14.1-15.1,18.2
		c-1.2,0.8-2.5,1.4-3.9,1.8c0.8,2.6,1.6,5.1,2.4,7.7c0.4,1.3,0.8,2.7,1.2,4c0,0,0.1,0.1,0.2,0.3l-1.7,0c-1.3-3.9-2.5-7.8-3.6-11.7
		c-0.1,0-0.1,0-0.2,0c-0.1,0-0.1,0-0.2,0c0,0-0.1,0-0.1,0c-10.9-1.2-20.6-7.5-28.3-14.8c-3.6,1.1-7.5,2.1-11.2,2.1
		c-0.3-0.4-0.7-0.9-1-1.3c0-0.1-0.1-0.2-0.2-0.3c3.6,0.3,7.4-0.8,11-1.8v0v0c-7.5-7.4-13.9-15.8-19.1-25c0.3-0.4,0.7-0.8,1.2-1
		c4.6,8.3,10.5,16.1,17.1,23c0.8,0.9,1.7,1.7,2.6,2.6c0.1,0,0.2-0.1,0.3-0.1c0,0,0.1,0,0.3,0c0.6,0.1,0.9,0.8,0.5,1.3
		c7.6,7.1,16.5,12.7,26.7,13.9c-2.7-9.6-5-19.3-7.4-29c-1-4.4-2.1-8.8-3.1-13.2c-0.2,0-0.5,0-0.7,0c-5.5-0.2-10.7-2.5-15.6-5.5
		c-0.2-0.6-0.2-1.3-0.3-2c4,2.4,8.1,4.4,12.6,5.5c1.2,0.3,2.5,0.5,3.7,0.5c-2.7-11.7-5.3-23.4-7.7-35.2
		C941.9,587.5,942.4,587.4,942.9,587.4z"/>
	<path class="st11" d="M936.5,743.6c0,0-2-9.9-7.9-22.1c-5.1-10.4-5.2-24.2-4.6-39.4c0.1-1.9,1.5-3.5,3.4-3.7
		c24.2-3.5,47.9-3.5,71.1,0c1.8,0.3,3.2,1.9,3.3,3.7c0.6,15.2,0.5,29-4.6,39.5c-5.9,12.2-7.9,22.1-7.9,22.1H936.5z"/>
	<path class="st12" d="M940.6,676.7c2.8,3.9,7.9,9.4,15.5,11.8l-18.9,6.6c0,0,0.7,18.2,7.3,25.3c6.6,7.1,17.1,7.8,20.8,14.5
		c3.3,6.2,17.2,7.5,25.6,3.1c-1,3.4-1.4,5.5-1.4,5.5h-52.9c0,0-2-9.9-7.9-22.1c-5.1-10.4-5.2-24.2-4.6-39.4c0.1-1.9,1.5-3.5,3.4-3.7
		C931.8,677.7,936.2,677.1,940.6,676.7z"/>
	<path class="st13" d="M923.9,690.8c-0.9,0.1-1.9-0.2-2.6-0.8c-0.7-0.6-1.1-1.6-1.1-2.5c0.1-1.8,0.1-3.6,0.2-5.5
		c0.1-2.1,1.6-3.8,3.7-4.1c26.5-3.8,52.5-3.9,77.9,0c2,0.3,3.5,2,3.6,4.1c0.1,1.9,0.1,3.8,0.2,5.7c0,1-0.4,1.9-1.1,2.6
		c-0.7,0.6-1.7,0.9-2.7,0.8C976.4,687.6,950.4,687.6,923.9,690.8z"/>
	<path class="st14" d="M940,676c2.7,3.9,8,10,16,12.5l0,0c-10.7,0.2-21.3,1-32.2,2.3c-0.9,0.1-1.9-0.2-2.6-0.8
		c-0.7-0.6-1.1-1.6-1.1-2.5c0.1-1.8,0.1-3.6,0.2-5.5c0.1-2.1,1.7-3.8,3.7-4.1C929.3,677.1,934.7,676.4,940,676z"/>
</g>
<g>
	<path class="st15" d="M1099.7,257.7c1.8,0,3.6,0.7,4.9,2c1.3,1.3,2,3.1,2,4.9v78.2c0,1.8-0.7,3.6-2,4.9c-1.3,1.3-3.1,2-4.9,2h-7.9
		l-10.7,10.7l-10.7-10.7H942.9c-1.9,0-3.6-0.7-5-2c-1.3-1.3-2-3.1-2-4.9v-78.2c0-1.8,0.7-3.6,2-4.9c1.4-1.3,3.1-2,5-2H1099.7z"/>
	<path class="st6" d="M1097.4,272.8c0-3.6-2.9-6.5-6.5-6.5c-18.8,0-73.3,0-92.1,0c-3.6,0-6.5,2.9-6.5,6.5c0,5.6,0,13.7,0,19.3
		c0,3.6,2.9,6.5,6.5,6.5h92.1c3.6,0,6.5-2.9,6.5-6.5C1097.4,286.5,1097.4,278.4,1097.4,272.8z"/>
	<path class="st6" d="M981,272.8c0-1.7-0.7-3.4-1.9-4.6c-1.2-1.2-2.9-1.9-4.6-1.9c-6.3,0-15.9,0-22.2,0c-1.7,0-3.4,0.7-4.6,1.9
		c-1.2,1.2-1.9,2.9-1.9,4.6c0,5.6,0,13.7,0,19.3c0,1.7,0.7,3.4,1.9,4.6c1.2,1.2,2.9,1.9,4.6,1.9c6.3,0,15.9,0,22.2,0
		c1.7,0,3.4-0.7,4.6-1.9c1.2-1.2,1.9-2.9,1.9-4.6C981,286.5,981,278.4,981,272.8z"/>
	<path class="st6" d="M981,315.4c0-1.7-0.7-3.4-1.9-4.6c-1.2-1.2-2.9-1.9-4.6-1.9c-6.3,0-15.9,0-22.2,0c-1.7,0-3.4,0.7-4.6,1.9
		c-1.2,1.2-1.9,2.9-1.9,4.6c0,5.6,0,13.7,0,19.3c0,1.7,0.7,3.4,1.9,4.6c1.2,1.2,2.9,1.9,4.6,1.9c6.3,0,15.9,0,22.2,0
		c1.7,0,3.4-0.7,4.6-1.9c1.2-1.2,1.9-2.9,1.9-4.6V315.4z"/>
	<path class="st6" d="M1097.4,314.3c0-3.6-2.9-6.5-6.5-6.5c-18.8,0-73.3,0-92.1,0c-3.6,0-6.5,2.9-6.5,6.5c0,5.6,0,13.7,0,19.3
		c0,3.6,2.9,6.5,6.5,6.5h92.1c3.6,0,6.5-2.9,6.5-6.5C1097.4,327.9,1097.4,319.9,1097.4,314.3z"/>
	<circle class="st16" cx="1097.4" cy="261" r="22.5"/>
	<path class="st6" d="M1106.6,252.1c2,0.1,3.4,2.8,1.9,4.5c0,0-0.1,0.1-0.1,0.1l-11.9,11.9c-0.4,0.3-0.5,0.4-0.8,0.5
		c-0.9,0.4-2,0.3-2.8-0.4c-0.1-0.1-0.1-0.1-0.2-0.2l-6.3-6.3c-1.2-1.3-0.8-3.6,0.7-4.3c1-0.5,2.3-0.3,3.1,0.5l4.4,4.4l10-10
		C1104.6,252.9,1105.7,252.1,1106.6,252.1z"/>
</g>
<g>
	<path class="st17" d="M1158.2,176.5c0-6.4-5.2-11.6-11.6-11.6c-19.4,0-58.2,0-77.5,0c-6.4,0-11.6,5.2-11.6,11.6c0,1.8,0,3.7,0,5.6
		c0,6.4,5.2,11.6,11.6,11.6c19.4,0,58.2,0,77.5,0c6.4,0,11.6-5.2,11.6-11.6C1158.2,180.2,1158.2,178.3,1158.2,176.5z"/>
	<circle class="st6" cx="1075.7" cy="178.7" r="6.1"/>
	<path class="st6" d="M1145.1,178.3c0-0.8-0.3-1.6-0.9-2.1c-0.6-0.6-1.3-0.9-2.1-0.9c-9.5,0-38.8,0-48.3,0c-0.8,0-1.6,0.3-2.1,0.9
		c-0.6,0.6-0.9,1.3-0.9,2.1c0,0,0,0,0,0c0,0.8,0.3,1.6,0.9,2.1c0.6,0.6,1.3,0.9,2.1,0.9c9.5,0,38.8,0,48.3,0c0.8,0,1.6-0.3,2.1-0.9
		C1144.8,179.9,1145.1,179.1,1145.1,178.3C1145.1,178.3,1145.1,178.3,1145.1,178.3z"/>
</g>
<g>
	<path class="st17" d="M1208.5,127.6c0-6.4-5.2-11.6-11.6-11.6c-19.4,0-58.2,0-77.5,0c-6.4,0-11.6,5.2-11.6,11.6c0,1.8,0,3.7,0,5.6
		c0,6.4,5.2,11.6,11.6,11.6c19.4,0,58.2,0,77.5,0c6.4,0,11.6-5.2,11.6-11.6C1208.5,131.3,1208.5,129.4,1208.5,127.6z"/>
	<circle class="st6" cx="1126" cy="129.8" r="6.1"/>
	<path class="st6" d="M1195.4,129.4c0-0.8-0.3-1.6-0.9-2.1c-0.6-0.6-1.3-0.9-2.1-0.9c-9.5,0-38.8,0-48.3,0c-0.8,0-1.6,0.3-2.1,0.9
		c-0.6,0.6-0.9,1.3-0.9,2.1c0,0,0,0,0,0c0,0.8,0.3,1.6,0.9,2.1c0.6,0.6,1.3,0.9,2.1,0.9c9.5,0,38.8,0,48.3,0c0.8,0,1.6-0.3,2.1-0.9
		C1195.1,131,1195.4,130.2,1195.4,129.4C1195.4,129.4,1195.4,129.4,1195.4,129.4z"/>
</g>
<path class="st18" d="M650.5,221.8c0,0,0.3-13.3,0.7-21.2c0.4-7.8-0.6-9.5,8.2-7.8c8.8,1.7,15.5-3,12.1-20.3
	c-3.5-17.4-7.9-29.9-14-32.2c-6.1-2.3-39.3,29.2-39.3,29.2l-9.8,40.5C608.4,210,633.9,242.4,650.5,221.8z"/>
<path class="st19" d="M661.8,193.2c-2.9-0.8-16.8-4.9-21.7-12.2c-5.2-8.2-7.1-9.3-9.7-9.5c-2.6-0.1-15.9,24.5-19,29.4
	c-3.1,4.9,9.4,9.2,16.3,4.3c6.3-4.5,18.1-8,23.6-7.4c0.3-5.4,0.5-6.4,8.1-4.9C660.2,193,661,193.1,661.8,193.2z"/>
<path class="st20" d="M561.3,734.1l2.2,1.2c0,0,2.7,0,3.6,0.3c0.5,1.2,0.1,3.9,0.1,4.9c-1.5,0.8-37.2,5.6-54.5,7
	c-17.2,1.4-35.7,2.8-38.3,2.7c-0.7-2-0.3-2.9,0.1-3.9c3-0.7,19.5-1.9,23.3-2.4C501.6,743.2,561.3,734.1,561.3,734.1z"/>
<path class="st20" d="M727,736l5.6,1.9c0,0,3,0.2,3.4,0.9c0.4,0.8,0.3,1.9,0.1,2.8c-1.6,0.2-59.5,1.9-72.8,1.4
	c-13.3-0.6-25.2-0.9-27.5-1.1c-0.7-1.9,0.3-3.5,0.5-4.3C638.1,737.1,727,736,727,736z"/>
<path class="st18" d="M646.1,652.6c0,0-1,7.6,0,27.7c1,20.2-0.4,29.4-2.7,37.9c-2.2,8.5-3.3,14.4-2.4,16.1c0.9,1.8,5.8,3,7.7,3.3
	c0,0,51.3,1.5,65.3,0.9c14-0.6,16.7-0.5,18.7-0.6c0,0,2-3.5-10.3-8.6c-12.3-5.1-38.6-11.6-43.6-14.4c-5-2.8-4.1-7.1-3-15.7
	c1-8.6,3.3-38.5,4-43.5S656.2,643.1,646.1,652.6z"/>
<path class="st19" d="M679.4,659.6c0.1-1.7,0.3-3.1,0.4-3.8c0.7-5-23.5-12.6-33.7-3.2c0,0-1,7.6,0,27.8c1.1,20.2-0.5,29.4-2.8,37.9
	c-2.2,8.5-3.3,14.4-2.4,16.1c0.9,1.8,5.8,3,7.7,3.3c0,0,51.3,1.5,65.2,0.9c14-0.6,16.8-0.5,18.8-0.6c0,0,1.7-3-8-7.6
	c-8.9,2.7-37.4,2.5-51.6,1c-14.8-1.6-20.3-10.4-19.4-24.8c0.9-14.4-2.9-37.5,3.3-40.5C663.2,663,679.4,659.6,679.4,659.6
	L679.4,659.6z"/>
<path class="st18" d="M576.3,664.5c0,0-9.7,19.6-13.4,35.5c-3.7,15.9,0.9,25.2,0.6,35.3c0,0-47.1,6.8-61.6,8.4
	c-14.6,1.6-19.1,1.6-21.6,0.4c-2.6-1.2-1-4.6,9-9.6c10-5,26.8-12.2,32.3-18.1c5.5-5.9,15.8-44,19-55.2c3.2-11.2,3.9-13.1,3.9-13.1
	L576.3,664.5z"/>
<path class="st19" d="M544.5,648.1c-0.3,0.5-0.8,2.2-2.1,6.7c7.9,6.6,16.5,14.9,15,18.8c-4.6,12.2-12.2,30.6-19.2,39.6
	c-10.9,14.2-23.8,21.4-39.2,22.6c-5.9,0.5-9.2,0-10.9-0.8c-8.9,4.7-10.4,8-7.9,9.1c2.5,1.2,7.1,1.2,21.7-0.4
	c14.6-1.6,61.5-8.4,61.5-8.4c0.4-10-4.2-19.4-0.5-35.3c3.7-15.9,13.4-35.5,13.4-35.5l-31.1-16.3L544.5,648.1z"/>
<path class="st21" d="M718.2,640.7c-2.9,3.9-13.2,14.2-48.2,17.2c-34.9,3-52.3-11.5-52.3-11.5c-0.1,3.2-0.8,7.2-0.8,7.2
	c-4.6,7.4-26.1,15.9-53.7,11c-27.6-4.9-42.5-19.2-42.5-19.2c2.3-5.5,9.4-47.9,11.5-122.2c2.2-74.3,16.6-148.1,18.4-153.2
	c1.6-5.1,6.2-5.8,6.2-5.8l59.1-9c0,0,33.1,5.6,52.4,11.6c7.8,2.4,13.4,5,13.6,7.3c0.3,2.6,1.8,11.7,3.7,23.8
	c4,25.4,10.1,63.9,12.1,82.1c2.9,26.9,4.8,80,9.4,102.7C711.8,605.5,721.1,636.8,718.2,640.7z"/>
<path class="st22" d="M668.1,367c-18.9,0.1-26.6,20.5-26.6,20.5s27.8,7.8,44.1,10.5c-2-12.1-3.4-21.2-3.7-23.8
	C681.5,372,676,369.4,668.1,367z"/>
<path class="st20" d="M573.7,361.7l-17.1,2.6c0,0-4.6,0.6-6.3,5.8c-1.6,5.1-16.1,78.9-18.4,153.2c-2.1,74.3-9.2,116.7-11.4,122.2
	c0,0,14.8,14.3,42.5,19.2c5.1,0.9,10.1,1.4,14.7,1.4c-12.5-6-24.4-15-30.7-26.2c-11.8-20.9-3.9-59.9-2.9-96.1
	c1.1-36.3,15.5-146.6,22.7-162.9C570.2,373.3,572.4,366.7,573.7,361.7z M716.9,625.8c-9.8-1.8-25.3-6.9-37.4-21.4
	c-19-23-29.4-72.5-32.8-84.5c-3.3-12,9.6,0.3,4.1-21.1c-5.4-21.4-13.6-67.1-15-74.3c0,0-10.8,6.8-12.2,18.7
	c-1.6,11.9-2.8,77.2-2.8,115.1c0,36.1-2.5,73.9-3.1,88.2c1.3,1,18.6,14.3,52.2,11.5c34.9-3,45.3-13.3,48.2-17.2
	C719.3,639.2,718.5,633.5,716.9,625.8z"/>
<path class="st20" d="M685.5,398.1c-16.1-2.7-44.1-10.5-44.1-10.5s7.8-20.5,26.8-20.5c7.8,2.4,13.4,5,13.6,7.3
	C682.2,376.8,683.6,386,685.5,398.1z"/>
<path class="st18" d="M723.2,390.7c0,0,3.9,5.2,6.7,7.1c2.7,1.8,11.7,4,12.2,8c0.5,4.1-9.3,1.6-9.7,4.7c-0.4,3.1,6.5,9.9,10,14.9
	c3.4,4.9,3.5,9.8-7.7,9.7c-11.2-0.1-30.8-19.4-35.1-27.7C695.3,399.1,723.2,390.7,723.2,390.7z"/>
<path class="st23" d="M724.7,390.1c0,0-4.3,14.2-24.9,17.7c0,0-11-10.5-19.1-28.1c-8.4,2.2-43.7,11-70.6,8.3
	c-30.7-3.1-59.8-18.2-59.8-18.2c2.2-9.4,7.4-27.3,7.4-27.3c-6.1-4.5-9.8-10.9-11.4-25.1c-1.5-14.2,1.9-50.9,2.3-57.1
	c0.4-6.1-5.6-15.2-0.4-30.1c2.9-8.5,18.1-15.6,33.3-20.5c11.4-3.7,22.8-6.2,29-7c5.5-0.8,10.4,1,14.7,3.6c7,4.2,12.5,10.5,16.9,11.9
	c6.5,2.1,7.8-1.4,8.3-1.8l0.1,0c0,0,9.6,4.9,15.1,9.9c5.4,5,8.3,20.4,10.6,30.7c2.1,10.3,7.5,49.4,11.7,64.4
	C692.1,336.4,717,379.2,724.7,390.1z"/>
<path class="st24" d="M670.2,234.2c-1.4-1.4-3.4-2.6-6-2.1c-5.5,1-0.3,9.6,3,19.1c3.3,9.4,2.9,15.2-2.1,31.4
	c-5.1,16.2-6.6,31.1,4.3,56.2c2.2,4.9,4.1,9.9,5.6,14.6c2.5,0.7,6.2,1.7,6.6,2.3c0.8,0.8,1.1,3,1.1,3l3.3,19.1l-4.1,0.8
	c0.4,2.3,0.8,4.2,1,5.8c7.7,14.8,16.8,23.6,16.8,23.6c20.6-3.6,24.9-17.7,24.9-17.7c-7.7-10.9-32.5-53.7-36.9-68.8
	c-4.2-15-9.6-54.1-11.8-64.4C674.5,250.1,672.8,241,670.2,234.2z"/>
<path class="st23" d="M581.5,209.6c11.4-3.7,22.8-6.1,28.9-7c5.5-0.8,10.4,1,14.8,3.6c-3.1,0.8-17.6,4.3-31.2,6.4
	c-15.2,2.4-24.1,4.6-27.3,7.2C565,221.2,572,215.4,581.5,209.6z"/>
<path class="st24" d="M628.7,338.1c0,0-23.9-12.5-30.4-24.8c-6.5-12.2-3-42.5-10.4-42.5c-7.4,0-14,45.6,9.3,60
	C620.5,345.3,628.7,338.1,628.7,338.1z"/>
<path class="st25" d="M672.6,381.1c0,0-14.3-0.1-23.8-2.1c-9.4-2-11.8-19.3-32.9-28.2c-21-8.9-48.8-17.3-51.4-54.2
	c-2.5-37,7.7-60.6,13.8-66.3c6.1-5.7,16.3,0.4,13.1,14.7c-3.1,14.3-8,54,0.4,72.7c5.4,12.2,48.6,24.1,66.4,29.7
	c14.7,4.6,23.1,8,23.1,8s0.7,0.6,1,2.4C683.3,362.4,684.6,372.7,672.6,381.1z"/>
<path class="st24" d="M557.6,342.6c-0.3,0.7-2.9,10-5.1,18.5c0,0.1,0,0.1,0.1,0.2c0,0,36.9,7.7,56.7,14.3
	c12.5,4.1,24.1,8.8,31.2,11.8c13.4-1.5,26-4.2,33.9-6l-1.7-0.3c0,0-23,0.3-54.5-9.6C600,365.7,571.7,353.8,557.6,342.6L557.6,342.6z
	"/>
<path class="st24" d="M625.2,206.2c-3,0.7-17.5,4.3-31.1,6.4c-15.3,2.4-24.2,4.6-27.4,7.2c-0.1,0.1-0.2,0.2-0.3,0.2
	c0.4-0.4,6.7-5.4,15-10.3c11.4-3.7,22.8-6.2,29-7C616,201.9,620.9,203.6,625.2,206.2z"/>
<path class="st26" d="M641,131.2c0,0,9.8,2.1,16.4,6.7c6.5,4.6,8.4,11.1-0.3,13.2c-8.7,2-17.8,1.3-21.9,18.8
	c-4.2,17.5-8.6,29.6-22.4,34c-13.8,4.4-40.6,6.1-52,24.1c-11.4,18-12.5,33.9-12.5,33.9s-27.3-16.9-26.5-41.8
	c0.8-24.9,17-38.6,45-38.6c27.9,0,39.5,3.6,38-12.8C601.5,132.4,627.4,128.1,641,131.2z"/>
<path class="st18" d="M682.6,357.7c0,0,0.7,5.3-0.4,10.4c-1.1,5-7,11.1-9.6,13c0,0,9.5,0.9,17.7,4.7c8.3,3.8,29.2,8.6,32.2-7.8
	c0,0-1.2-2.1-7.9-3.8c-6.8-1.7-15.7-5.5-16.2-7.6c0,0,5.6-1.5,7.8-2.5c2.2-1.1,2.1-3.4,1.7-4.5c-0.3-1.1-6-0.8-9.3-1.9
	C695.3,356.7,688.8,356.5,682.6,357.7z"/>
<path class="st20" d="M534.9,739.4c0,0-8.8-7.4-20.3-10.2c-11.4-2.9-16.5-2.4-18.4,1.7c0,0,5.7-0.3,12.9,1.9
	c7.3,2.2,16.4,7.8,16.4,7.8L534.9,739.4z"/>
<path class="st20" d="M717.9,727.9c0,0-7.1-3.7-24.8,1c-17.5,4.7-21.5,9.7-21.5,9.7l-7.1-0.1c0,0,5.9-7.2,15.2-11.3
	s21.9-7.6,30.7-5.7C715.1,722.3,718.6,724.5,717.9,727.9z"/>
<g>
	<path d="M747.5,654.4c0,0,3.7,44.4,45.5,48.3c41.9,3.9,81.5-39.9,82.7-44.6C877.1,653.5,799.7,603.2,747.5,654.4z"/>
	<path class="st27" d="M790.8,496.5c0,0-5.7-1.2-13.6,1.5c-3.7,1.3-15.9,6.8-27.1,11.9c-14.9,6.3-26.9,18-33.7,32.7
		c-9,19.7-21.1,47.5-24.6,61.5l18.3,2.7l17.5,55.2l157.5-8.9l0.7-63.8c0,0-12.7-37.3-20.8-59.3c-5.4-14.4-17.9-25-33.1-27.7
		c-6.6-1.2-12-2.2-12-2.2L790.8,496.5z"/>
	<path class="st28" d="M733,520.6c6.3-2.3,11.2-0.4,5.1,16.7c-12,33.5-22.7,59.3-13.9,70.1c3.4,4.3-1.8,9.4-9.8,12.5l-4.2-13.1
		l-18.3-2.7c3.5-14,15.7-41.8,24.7-61.5C720.4,534.1,726,526.6,733,520.6z"/>
	<path class="st28" d="M745.7,610.9c0,0,1.6-24.7,4.8-36.7c3.2-12.1,12.2,11,16.6,20.7c4.4,9.7,7.4-2.3,17.9,11.1
		C795.5,619.4,750.9,622.9,745.7,610.9z"/>
	<path class="st28" d="M885.8,590.2c-10.9,8.3-30.1-3.3-30.1-3.3s-5.9-34.6-6.2-45.7c-0.3-10.1,18.9,21.7,23.6,11.3
		c6.5,18.4,12.7,36.6,12.7,36.6V590.2z"/>
	<polygon class="st29" points="733.2,653.3 779.1,653.3 776,660.4 730.1,660.4 	"/>
	<path class="st30" d="M734.3,704.7c25.9-6.2,67.9-17.2,67.9-17.2s41.7-39.7,85-48c43.3-8.4,62.6,16.9,41.5,45.6
		c-21.1,28.7-84.5,44-84.5,44l-84.9,0.5C753.8,720.5,743.4,711.5,734.3,704.7z"/>
	<path d="M734.3,704.7c9.2,6.8,19.6,15.8,25.1,24.9l-2,0c0,0-17.8,16.1-46.4,18.1c-28.6,2-46.1-8-40.3-22.7
		c5.9-14.7,33.3-14.3,45.3-16.2C719,708.3,725.8,706.7,734.3,704.7z"/>
	<path class="st31" d="M833.1,697.9c0,0,59.8-9.6,74.4-30.7c14.7-21.1-13.6-32.3-51.7-12.9c-38.1,19.4-48.8,32.3-48.8,32.3
		L833.1,697.9z"/>
	<path class="st31" d="M876.3,709.8c2.4,3.5,10.9,18.1-5.8,30.3v0c-9.6,1.7-20.2,3.7-31.7,3.6c-21.9-0.3-70.2-0.9-128.6-28.1
		c-60.1-28.1-55.3-79.4-4.4-75.9c18.9,1.3,10,1.6,31.1,12.2c35.6,17.8,102.6,49.9,138.8,57.2L876.3,709.8z"/>
	<path class="st30" d="M688.8,640.8c-6.2,2.2-12,7.1-13.7,17.4c-3.9,24.1,41.6,29.8,79.9,34.7c38.3,4.9,56.5,19.3,80.3,35.2
		c16.6,11.1,32.1,8.2,43.5,2.4c-1.5,3.2-4.1,6.4-8.4,9.5v0c-9.6,1.7-20.2,3.7-31.7,3.6c-21.9-0.3-70.2-0.9-128.6-28.1
		C657.7,691,654.8,648.7,688.8,640.8z"/>
	<path class="st32" d="M700.2,605.2c0,0-1.3,10.7-2.7,22.7c-1,7.7,1.8,15.3,7.4,20.6c5.6,5.3,13.3,7.7,20.9,6.5
		c37.3-6.2,93.5-15.4,93.5-15.4l-2.1-29l-71.9-0.1L700.2,605.2z"/>
	<path class="st33" d="M772.7,461.6c0,0-20.1-20-12.7-38.1c7.4-18.1,27.6-14.7,36.6-18.6c8.9-3.9,6.2-25.7,30.4-29.1
		c24.3-3.4,38.1,39.6,9.3,66.6C836.4,442.4,781.9,465.6,772.7,461.6z"/>
	<path class="st32" d="M814.1,421.6c0,0,9.1,8.5,15.5,9.9c0,0,13.6,17.5,15.3,35c1.7,17.6-12,21.4-22.2,24.2
		c-3.7,1.1-1.2,5.3,0.9,10c0,0-0.8,9-8.4,13.4c-7.6,4.4-20.1-0.7-29-8.1c-8.9-7.4-10-7.5-10-7.5s10-3.8,11.7-9
		c1.8-5.3-2.5-14.4-2.5-14.4s-5.6,4.8-11.4,0c-5.7-4.8-6.2-17.7,8.1-17.3c0,0,8.7-2.3,6.6-14.1C788.7,443.7,809.4,433.4,814.1,421.6
		z"/>
	<path class="st34" d="M785.3,475C785.3,475,785.7,476.5,785.3,475c5.1-1.6,10.6-3,18.8,4.5c8.3,7.5,15.7,11.4,27.9,8l0.7-0.2
		c-0.4,0.2-0.8,0.4-1.2,0.5c-1.5,0.5-3.2,1-4.8,1.7c-1.4,0.4-2.8,0.8-4.1,1.2c-0.9,0.3-1.4,0.7-1.6,1.2c-0.5,0.2-1,0.4-1.3,0.7
		c-7,3.7-4.4,6.3-11.4,9.7c-5.4,2.5-9.9,6.1-12,10.2c-3.5-1.7-7-4-10-6.5c-8.9-7.4-10-7.5-10-7.5s10-3.8,11.7-9
		C789.6,484.1,785.3,475,785.3,475z"/>
	<path class="st35" d="M922.3,593.4c1.1-2.5,0.8-5.4-0.7-7.6c-1.5-2.3-4-3.6-6.7-3.6c-23.8,0-75.4,0-96,0c-5.4,0-10.2,3.2-12.3,8.1
		c-8.7,20-30.6,70.2-30.6,70.2h108.3c5.4,0,10.2-3.2,12.4-8.1C902.8,638.3,915.4,609.4,922.3,593.4z"/>
	<path d="M877.5,708.6c8.1-2,41.8-9.5,63.1-3.7c24.3,6.6,20.3,30.6,5,36.3c-10.1,3.7-37.4-1.4-51.6-3.2c-6.7-0.9-14.7,0.5-23.5,2.1
		v0c19.1-13.9,5.3-31,5.3-31L877.5,708.6z"/>
</g>
<g>
	<path class="st36" d="M1126.4,470.2l-24.2-6.6c0,0-0.7,0.1-1.9,0.2c-31.8,3.6-55.2,31.6-53,63.5c4.7,70.6,12.9,185.4,12.9,184.3
		h23.4c-1-5,8.5-53.5,12.7-68.3c4.2-14.8,17.2-89.6,0.9-108l25.9,2.8l10.9-62.5L1126.4,470.2z"/>
	<path class="st37" d="M1083.5,711.6v28c0,7.5-2.8,8.3-16.2,8.3h-45.6c-0.5,0-2.7-6.3,6.2-8.4c8.9-2.1,31.4-6.4,31.9-14.4
		c0.5-8,0.3-13.6,0.3-13.6H1083.5z"/>
	<path class="st38" d="M1148.4,524.8c0,0-46.9-10.9-55.4-4.8c-8.5,6,4.1,15.3,4.1,15.3l42.8,9.2L1148.4,524.8z"/>
	<path class="st39" d="M1343.4,553.4l-1.5,0.3c-0.5,0.2-1,0.4-1.4,0.6c-2.2,1.2-3.7,3.6-3.9,6.1c-0.1,1.4,0,1.7,0.3,3.1v0
		c4.5,13.8,9.2,27.5,14,41.1c16.3,46.8,32.8,93.4,49.4,139.9v0c0.4,0.7,0.4,1,1.2,1.4c0.3,0.1,0.6,0.2,0.9,0.3l0.9-0.1l0.8-0.4
		c0.2-0.2,0.4-0.4,0.5-0.7c0.4-0.8,0.2-1,0.2-1.8l-0.2-0.7c-15.7-55.7-31.4-111.5-47.8-167c-1.6-5.6-3.3-11.1-5.1-16.7l0,0
		c-0.2-0.5-0.4-1-0.6-1.4c-1-1.8-2.7-3.1-4.6-3.7c-0.5-0.1-1-0.2-1.5-0.3C1344.4,553.4,1343.9,553.4,1343.4,553.4"/>
	<path class="st39" d="M1308.1,541.8l-1.5,0.3c-0.5,0.2-1,0.4-1.4,0.7c-2.2,1.3-3.7,3.8-3.9,6.5c-0.1,1.5,0,1.8,0.3,3.2
		c4.5,14.6,9.2,29.1,14,43.6c16.3,49.7,32.8,99.1,49.4,148.4v0c0.4,0.7,0.4,1,1.2,1.5c0.3,0.1,0.6,0.2,0.9,0.3l0.9-0.1l0.8-0.5
		c0.2-0.3,0.4-0.5,0.5-0.8c0.4-0.8,0.3-1.1,0.2-1.9l-0.2-0.8c-15.7-59-31.4-118.2-47.8-177.1c-1.6-5.9-3.3-11.8-5.1-17.7v0
		c-0.2-0.5-0.4-1-0.6-1.5c-1-1.9-2.7-3.3-4.6-3.9c-0.5-0.2-1-0.2-1.5-0.3C1309.2,541.8,1308.7,541.8,1308.1,541.8"/>
	<path class="st39" d="M1241.2,553.4l1.5,0.3c0.5,0.2,1,0.4,1.4,0.6c2.2,1.2,3.7,3.6,3.9,6.1c0.1,1.4,0,1.7-0.3,3.1v0
		c-4.5,13.8-9.2,27.5-14,41.1c-16.3,46.8-32.8,93.4-49.4,139.9v0c-0.4,0.7-0.4,1-1.2,1.4c-0.3,0.1-0.6,0.2-0.9,0.3l-0.9-0.1
		l-0.8-0.4c-0.2-0.2-0.4-0.4-0.6-0.7c-0.4-0.8-0.2-1-0.2-1.8l0.2-0.7c15.7-55.7,31.4-111.5,47.8-167c1.6-5.6,3.3-11.1,5.1-16.7l0,0
		c0.2-0.5,0.4-1,0.6-1.4c1-1.8,2.7-3.1,4.6-3.7c0.5-0.1,1-0.2,1.5-0.3C1240.2,553.4,1240.7,553.4,1241.2,553.4"/>
	<path class="st39" d="M1201.5,541.8l1.5,0.3c0.5,0.2,1,0.4,1.4,0.7c2.2,1.3,3.7,3.8,3.9,6.5c0.1,1.5,0,1.8-0.3,3.3v0
		c-4.5,14.7-9.2,29.4-14,44c-16.3,50.1-32.8,99.9-49.4,149.6v0c-0.4,0.7-0.4,1.1-1.2,1.5c-0.3,0.1-0.6,0.2-0.9,0.3l-0.9-0.1
		l-0.8-0.5c-0.2-0.3-0.4-0.5-0.5-0.8c-0.4-0.8-0.3-1.1-0.2-1.9l0.2-0.8c15.7-59.5,31.4-119.2,47.8-178.6c1.6-6,3.3-11.9,5.1-17.8v0
		c0.2-0.5,0.4-1.1,0.6-1.5c1-1.9,2.7-3.3,4.6-3.9c0.5-0.2,1-0.2,1.5-0.3C1200.5,541.8,1201,541.8,1201.5,541.8"/>
	<path class="st40" d="M1445.1,438.9c-2.2,22.7-9.4,46.7-23.1,71.5c-23.4,42.7-71.5,68.9-125.8,74.8c0,0-0.1,0-0.1,0
		c-43.1,4.7-90.2-6-132-28.8c0,0,90.9-60.6,98.4-82.5c7.5-21.9,32.3-184.8,32.3-184.8s12.8-3.3,30.5-3.6c14.4-0.2,32,1.6,48.8,8.8h0
		c11.6,5,22.7,12.5,31.9,23.8c1.1,1.3,2.2,2.7,3.2,4.1c18.6,23.8,32,52.4,35.6,84.4C1446,417,1446.2,427.8,1445.1,438.9"/>
	<path class="st39" d="M1305,326c0,0,32.5-7.2,49.5,11.4c17.1,18.5,12.1,31.4,13.3,37.9c1.2,6.5,14.3,29.5,11.5,41.7
		c-2.8,12.2-16.9,43.5-32,62.6c-15.1,19.1-57.5-46.9-57.5-46.9L1305,326z"/>
	<path class="st36" d="M1226.9,355.1l-12,14.6c0,0-2,90.4-2.7,93.3c-0.7,3,29.2-6.6,29.2-6.6l12.6-76L1226.9,355.1z"/>
	<path class="st41" d="M1325.8,451l-102.6,6.7c-34.4,8.9-89.5,14.6-123.2,15.2l70.6,18.4l47.8,16.7c0,0,93.1-21.6,94.4-23.1
		S1325.8,451,1325.8,451"/>
	<path class="st42" d="M1148.8,549.4c0,0-17.1,7.7-16.5,8c0.6,0.4-8.8,2-19.4-12.8L1148.8,549.4z"/>
	<path class="st43" d="M1125,709.6c-0.5-15.3-0.8-45.5,0.4-57c1.6-14.8,1.6-89.6-17.9-108l26.4,2.8v-62.5l-8.5-5.4l-25.4-6.6
		c-14.6,1.7-27.7,9.5-36.2,21.6c-8.4,12-11.3,27.1-7.8,41.4c14.2,58.8,36.1,146.3,43.1,173.8H1125z"/>
	<path class="st37" d="M1124.6,707.4c0,0,5,38.6,2.8,40.6c-5.2,0-59.7,0-61.3,0c-1.6,0,1.5-4.4,15-7.8c13.5-3.4,23.7-3.6,22.1-11.8
		c-1.6-8.2-4.9-22-4.9-22L1124.6,707.4z"/>
	<path class="st44" d="M1133.9,529.8v17.6l-26.4-2.8c0,0-14.1-9.3-6.7-15.3C1104.7,526.1,1120.2,527.7,1133.9,529.8"/>
	<path class="st45" d="M1294.4,549.7c-15,1.9-50.7,3.7-84.7,5c-19.1,0.8-37.7,1.4-51.9,1.9c-15.4,0.5-25.6,0.8-25.6,0.8
		c0.1-2.9-1.3-6.5-3-10.4c-3.4-7.5-8.5-15.7-8-20.3c0.7-7,4.5-23.9-10.8-34.9c-15.3-11.1-10.4-18.9-10.4-18.9h134.7
		c7.7,0,34.6,1,36.9-6.2c2.3-7.2-9.1-18.6-9.1-18.6l39.8-5.2c0,0,23.6-0.8,40,26.8c1.7,2.9,3.4,6.2,4.9,9.7
		C1362.8,515.8,1327,545.7,1294.4,549.7"/>
	<path class="st41" d="M1342.3,469.8c0.5,1,16.7,34.2-127,28.2c-52-2.2-79.5,4.4-93.4,13.7c0.6,6.1-0.4,11.6-0.7,14.9
		c-0.5,4.6,4.6,12.8,8,20.3c1.8,3.8,3.1,7.5,3,10.4c0,0,10.2-0.3,25.6-0.8c14.2-0.5,32.8-1.1,51.9-1.9c34-1.4,69.7-3.1,84.7-5
		c32.6-4.1,68.4-33.9,52.8-70.2C1345.7,475.9,1344.1,472.7,1342.3,469.8L1342.3,469.8z"/>
	<path class="st46" d="M1215.1,287.1c0,0,9.2,10.4-2.9,23.5c-12.1,13.1-13.1,23.2-7.5,28.3c5.6,5.2-0.1,8.9,0,13.5
		c0.1,4.7-1.7,13,19.4,12.3c21.1-0.7,43.9-67.6,43.9-67.6L1215.1,287.1z"/>
	<path class="st26" d="M1186,251.6c0,0-20.3-10.4-20.3-31.3s26.7-35.8,48.4-17.7c21.7,18.1,47.7,2.8,74,34.4
		c26.3,31.7,23.4,67.3,11.8,78.1C1288.3,325.8,1186,251.6,1186,251.6"/>
	<path class="st47" d="M1262.5,293.5c0,0,3.2-4.1,25.3,6.6c22.1,10.7,29.5,15.8,35.4,23.3c5.9,7.5,23.9,74.3,24.1,80.8
		c0,0-6.5,7.1-20.8,2.5c-4.5,14.3-6.2,24.6-5.2,30.9c0.9,5.3,5.4,12.5,13.6,21.7l-111.7-1.6c0,0,18-16.6,15.3-40.2
		c-2.4-20.5-5.3-28.4-8.8-30.6c-3.5-2.2-12.5-8-14.8-15.4c-2.4-7.6,1.5-44.4,3.6-50.8c2.1-6.4,20-22.7,20-22.7L1262.5,293.5z"/>
	<path class="st48" d="M1335.6,408.3l-0.8-1.6c0,0-21.7,8.5-32.3-43.6c0,0-3.6,29.4-5.7,39.2c-2.1,9.8-20.6,10-28.9,16.6
		c-4.9,3.9-18.6,9.2-30.6,14.3c-3.8,15-14.2,24.6-14.2,24.6l111.7,1.6c-8.2-9.1-12.8-16.3-13.6-21.7c-1-6.4,0.7-16.7,5.2-30.9
		C1330,407.9,1333,408.3,1335.6,408.3z"/>
	<path class="st43" d="M1187.5,233.7c0,0-8.7,24.1,0,51.8c8.7,27.8,33,1,51.6,22.5l24.7-15.4c0,0-15.3-18.1-17.7-22.7
		c-2.3-4.6,2.2-10.7-3.9-19s-12.9,0.1-20-1.7c-7.1-1.9-12.5-12.2-12.5-12.2S1190.3,232.9,1187.5,233.7"/>
	<path class="st49" d="M1245.6,268.5c0.1,0.4,0.3,0.9,0.5,1.3c2.3,4.6,17.7,22.7,17.7,22.7l-6.9,4.3c-7.3,0.2-14.9,0.6-20.5,1.3
		c-3.6,0.4-7.6,0.9-11.5,1.3c-5.3-1.1-10.6-0.6-15.6-0.3c10.5-3.1,16.9-21.7,28.7-24.5C1242.3,273.7,1244.5,271.3,1245.6,268.5z"/>
	<path class="st50" d="M1232,472.9h-51.2l0.2-8.6h51.2c2.3,0,4.2,1.9,4.2,4.2v0.1C1236.3,471,1234.4,472.9,1232,472.9"/>
	<path class="st50" d="M1007.9,375.8h129.3c2.2,0,4.2,1.3,5.2,3.3l46.1,93.9h-132.9L1007.9,375.8z"/>
	<path class="st51" d="M1004.7,375.8c-0.2,0-0.5,0.1-0.5,0.1c-0.8,0.4-1,1.1-0.6,1.9l44.5,90.9c1.3,2.7,4.1,4.3,7.1,4.3l127.9,0
		l-47.6-97.2L1004.7,375.8z"/>
	<path class="st43" d="M1343.5,406.7c0,0-20.5-0.3-36-4.4c0,0,0.4,26.7-1.5,25.8c-2.8-1.4-101.9-13.4-100.1-10c0,0-5.1,2.3-9.2,2.4
		c-4.1,0.1-15.8,2.7-6.9,10.3c0,0-15.6,11.7-17.3,12.5c-1.7,0.8-4.2,5.5,3.6,5.3c7.7-0.2,8.2-1.6,10-1c1.9,0.6,9.4,0.9,13-1.6
		c3.6-2.5,10.8-1.7,15-3.6c0,0,75,14.7,96.9,17.6c15.6,2.1,30-8.8,32.2-24.4C1344.3,427.3,1344.7,417.6,1343.5,406.7"/>
	<path class="st6" d="M1274.8,294.7c0,0,5.3,4.2-4.8,13.4c-10.1,9.1-12.9,18.6-16.1,18c-3.3-0.7-14.5-17.9-14.7-18
		c-0.3-0.1,23.4-14.5,23.4-14.5S1265,289.7,1274.8,294.7"/>
	<path class="st6" d="M1233,302.5c0,0-4.2,9.1-3.3,13.6c0.9,4.5,9.4-8,9.4-8S1235.9,303.5,1233,302.5"/>
	<path class="st40" d="M1347.3,479.5c0,0-5.4,17.1-42.3,19.3c-36.9,2.2-56.9,11.4-70.6,23.7c-13.7,12.3-27.2,17.9-41.9,19.4
		c-14.6,1.5-27.3,7.7-28.4,14.5c0,0,54.1,12.2,98.4,12.8c44.3,0.6,51.4-15.5,63.3-18.1C1337.8,548.5,1368.8,511.8,1347.3,479.5"/>
</g>
<g>
	<path class="st15" d="M1435.8,121.9c0-8.5-6.9-15.4-15.4-15.4c-32.8,0-109.1,0-141.9,0c-8.5,0-15.4,6.9-15.4,15.4
		c0,14,0,34.5,0,48.5c0,8.5,6.9,15.4,15.4,15.4c32.8,0,109.1,0,141.9,0c8.5,0,15.4-6.9,15.4-15.4
		C1435.8,156.4,1435.8,135.9,1435.8,121.9z"/>
	<circle class="st52" cx="1287.1" cy="139.3" r="9.7"/>
	<path class="st6" d="M1284.1,141.3c-0.4-0.6-0.6-1.3-0.6-2c0-2,1.6-3.6,3.5-3.6c2,0,3.7,1.6,3.7,3.6c0,0.8-0.3,1.5-0.6,2
		c2,0.7,3.7,1.9,4.8,3.6c-1.7,2.5-4.7,4.1-7.9,4.1c-3.3,0-6.1-1.6-7.9-4.1C1280.5,143.2,1282.2,141.9,1284.1,141.3z"/>
	<path class="st6" d="M1418.4,130.3c0-7.1-5.7-12.8-12.8-12.8c-23.3,0-63.7,0-87,0c-7.1,0-12.9,5.8-12.9,12.8c0,8.7,0,18.7,0,18.7
		h99.9c7.1,0,12.8-5.8,12.8-12.8V130.3z"/>
	<path class="st6" d="M1418.4,167.3c0-4-3.3-7.3-7.3-7.3c-24.2,0-102.3,0-126.5,0c-4,0-7.3,3.3-7.3,7.3c0,0,0,0,0,0
		c0,4,3.3,7.3,7.3,7.3c24.2,0,102.3,0,126.5,0C1415.1,174.6,1418.4,171.3,1418.4,167.3C1418.4,167.3,1418.4,167.3,1418.4,167.3z"/>
	<circle class="st15" cx="1285.5" cy="167.3" r="1.3"/>
	<circle class="st15" cx="1289.8" cy="167.3" r="1.3"/>
	<circle class="st15" cx="1294.2" cy="167.3" r="1.3"/>
</g>
<g>
	<path class="st15" d="M822.4,190.4c0-7.7-6.2-13.9-13.8-13.9c-25.2,0-68.8,0-94,0c-7.6,0-13.9,6.2-13.9,13.9c0,9.4,0,20.3,0,20.3
		h108c7.6,0,13.8-6.2,13.8-13.9V190.4z"/>
	<circle class="st6" cx="722.8" cy="193.3" r="10.5"/>
	<path class="st53" d="M719.7,195.5c-0.5-0.6-0.6-1.4-0.6-2.2c0-2.2,1.7-3.9,3.8-3.9c2.1,0,4,1.8,4,3.9c0,0.8-0.3,1.6-0.6,2.2
		c2.1,0.7,4,2.1,5.2,3.9c-1.8,2.7-5,4.4-8.6,4.4c-3.5,0-6.6-1.7-8.6-4.4C715.7,197.6,717.6,196.2,719.7,195.5z"/>
	<path class="st15" d="M700.9,140.3c0-7.7,6.2-13.9,13.8-13.9c25.2,0,68.8,0,94,0c7.6,0,13.9,6.2,13.9,13.9c0,9.4,0,20.3,0,20.3
		h-108c-7.6,0-13.8-6.2-13.8-13.9V140.3z"/>
</g>
<circle class="st6" cx="800.5" cy="143.2" r="10.5"/>
<path class="st53" d="M803.6,145.4c0.5-0.6,0.6-1.4,0.6-2.2c0-2.2-1.7-3.9-3.8-3.9c-2.1,0-4,1.8-4,3.9c0,0.8,0.3,1.6,0.6,2.2
	c-2.1,0.7-4,2.1-5.2,3.9c1.8,2.7,5,4.4,8.6,4.4c3.5,0,6.6-1.7,8.6-4.4C807.5,147.5,805.7,146.1,803.6,145.4z"/>
</svg>
